<?xml version="1.0" standalone="no"?>
<!DOCTYPE svg PUBLIC "-//W3C//DTD SVG 20010904//EN"
 "http://www.w3.org/TR/2001/REC-SVG-20010904/DTD/svg10.dtd">
<svg version="1.0" xmlns="http://www.w3.org/2000/svg"
 width="800.000000pt" height="450.000000pt" viewBox="0 0 800.000000 450.000000"
 preserveAspectRatio="xMidYMid meet">

<g transform="translate(0.000000,450.000000) scale(0.100000,-0.100000)"
fill="#000000" stroke="none">
<path d="M0 4339 c0 -155 1 -160 20 -154 15 5 21 0 26 -20 5 -22 11 -26 30
-22 17 3 25 -1 30 -15 3 -11 15 -29 26 -40 18 -18 18 -21 4 -43 -12 -18 -12
-25 -3 -28 9 -3 9 -15 -2 -53 -8 -27 -16 -71 -18 -99 -2 -27 -12 -72 -24 -98
-11 -27 -21 -71 -21 -98 -1 -27 -5 -49 -9 -49 -6 0 -14 -33 -23 -105 -3 -16
-11 -34 -20 -41 -14 -10 -16 -93 -16 -813 0 -527 3 -801 10 -801 6 0 9 5 8 11
-2 6 3 14 9 16 7 3 13 -1 13 -7 0 -9 8 -7 24 4 19 12 39 14 88 9 34 -3 96 -6
136 -7 68 -1 74 1 100 29 l28 30 -50 17 c-28 10 -60 18 -71 18 -12 0 -30 6
-40 14 -14 10 -26 11 -43 5 -37 -14 -52 -11 -52 12 0 19 4 20 85 15 52 -4 87
-2 90 5 4 5 15 7 25 4 20 -6 74 4 66 13 -3 2 -27 6 -53 8 -120 10 -142 13
-162 23 -12 7 -21 14 -21 18 0 6 213 -1 363 -13 70 -6 90 -11 98 -25 7 -14 5
-21 -10 -29 -16 -8 -19 -17 -14 -48 3 -20 11 -42 19 -48 7 -6 104 -16 216 -23
207 -12 291 -19 318 -26 16 -4 257 -17 359 -19 72 -1 69 -4 99 92 14 46 16 66
8 77 -7 9 -49 17 -126 24 -63 6 -153 15 -200 21 -47 5 -175 19 -285 30 -110
11 -236 25 -280 30 -44 5 -114 12 -155 15 -114 8 -180 15 -235 25 -27 5 -77
12 -110 14 -96 7 -146 18 -152 33 -3 8 1 38 10 66 9 29 24 80 34 115 9 34 20
63 25 63 37 6 91 5 198 -2 69 -5 190 -9 270 -10 80 -1 153 -5 163 -11 9 -5 75
-11 145 -14 70 -3 219 -12 332 -21 113 -8 263 -16 334 -17 147 -1 143 -3 166
92 7 26 16 42 23 39 17 -5 14 -80 -5 -147 -9 -30 -26 -107 -38 -170 -12 -63
-27 -137 -35 -165 -7 -27 -24 -108 -39 -180 -14 -71 -35 -173 -46 -225 -12
-52 -25 -117 -30 -145 -5 -27 -25 -126 -45 -220 -20 -93 -38 -183 -39 -200 -2
-16 -11 -61 -21 -100 -44 -181 -115 -536 -108 -548 3 -4 0 -13 -5 -20 -11 -14
-28 -85 -43 -185 -6 -40 -18 -80 -27 -88 -18 -19 -48 -17 -232 15 -63 11 -146
26 -185 32 -38 6 -79 15 -90 19 -11 5 -40 11 -65 14 -70 7 -320 44 -375 55
-63 13 -202 38 -279 51 -105 18 -96 33 -96 -155 l0 -165 1431 0 1430 0 -7 22
c-6 21 -9 317 -4 471 3 84 19 177 43 247 29 84 34 125 21 163 -14 40 -61 97
-80 97 -8 0 -21 14 -29 31 -9 16 -24 38 -33 48 -22 23 -52 79 -52 95 0 22 -40
66 -61 66 -14 0 -19 7 -19 26 0 17 -6 28 -19 31 -11 3 -22 11 -25 19 -5 12
-10 13 -27 3 -17 -8 -20 -8 -17 2 5 16 -36 61 -54 58 -43 -5 -50 13 -15 41 19
16 20 19 6 25 -10 4 -15 14 -12 25 6 22 -15 36 -30 21 -6 -6 -15 -11 -20 -11
-6 0 2 12 17 27 15 14 25 32 22 39 -2 6 -1 15 4 20 5 5 2 18 -6 29 -15 20 -15
20 -72 -1 -31 -12 -66 -25 -77 -29 l-20 -7 20 17 c11 9 46 30 78 47 52 28 57
34 57 64 0 18 -4 36 -10 39 -5 3 -10 16 -10 29 0 12 -5 27 -12 34 -11 11 -17
46 -19 116 0 15 6 35 15 45 17 19 11 67 -12 93 -11 13 -13 31 -9 65 4 32 1 56
-8 73 -8 14 -14 35 -15 48 0 12 -12 41 -27 63 -27 41 -29 52 -23 154 2 23 0
50 -4 62 -4 14 -1 27 10 38 16 16 16 19 -1 51 -12 23 -15 37 -8 46 14 18 14
78 0 106 -9 18 -8 25 2 31 10 7 11 13 2 30 -7 12 -9 26 -6 32 4 5 1 16 -5 24
-10 12 -7 21 14 46 14 17 29 43 32 57 4 15 15 38 24 52 23 33 34 86 20 95 -8
5 -8 11 1 21 6 7 9 21 5 30 -6 14 47 74 66 74 5 0 3 9 -4 20 -7 11 -18 20 -25
20 -19 0 -16 14 7 35 26 24 10 45 -34 45 -18 0 -36 4 -42 9 -5 4 -78 14 -163
20 -85 7 -159 15 -164 18 -18 11 56 43 86 37 16 -3 27 -1 27 5 0 6 9 11 20 11
14 0 20 7 21 23 3 48 5 52 26 55 22 3 63 49 63 70 0 6 14 22 31 36 25 21 28
27 15 32 -23 9 -20 18 15 53 34 34 49 39 49 16 0 -23 40 -19 41 5 1 11 3 25 4
30 1 6 3 14 4 20 0 5 8 7 16 4 11 -4 15 0 15 16 0 19 -2 20 -15 10 -12 -10
-16 -8 -24 11 -7 20 -5 25 12 27 12 2 23 -1 25 -7 2 -6 8 -11 13 -11 5 0 0 15
-10 34 -22 38 -14 62 18 53 11 -3 25 1 32 9 6 8 18 14 25 14 8 0 14 5 14 11 0
7 -7 8 -17 4 -42 -18 -63 -18 -63 0 0 9 9 19 20 22 23 6 26 19 8 26 -8 3 -5 6
5 6 25 1 16 25 -11 29 -44 7 -103 -59 -71 -79 7 -4 10 -11 7 -14 -4 -4 -13 -2
-20 4 -7 7 -22 18 -33 26 -19 13 -19 15 -3 42 24 41 33 100 18 118 -7 9 -8 15
-2 15 5 0 18 12 28 28 11 17 12 23 3 16 -25 -20 -47 -23 -59 -9 -8 10 -4 20
21 43 43 41 48 87 9 84 -3 0 -6 7 -7 16 -3 31 -23 72 -38 78 -17 7 -21 54 -5
54 6 0 10 5 10 10 0 7 -402 10 -1185 10 l-1185 0 0 -161z m820 127 c0 -18 -14
-34 -26 -29 -21 8 -17 33 6 33 11 0 20 -2 20 -4z m-6 -72 c4 -9 5 -19 2 -21
-8 -8 -47 18 -41 28 10 15 32 11 39 -7z m96 -36 c0 -14 -5 -18 -15 -14 -8 3
-15 0 -15 -6 0 -6 -3 -9 -6 -5 -3 3 -3 20 1 37 6 25 9 29 21 19 8 -6 14 -20
14 -31z m50 -8 c0 -5 -9 -10 -20 -10 -11 0 -20 5 -20 10 0 6 9 10 20 10 11 0
20 -4 20 -10z m-14 -68 c7 -32 0 -39 -24 -24 -8 6 -10 19 -6 41 8 37 21 30 30
-17z m-486 -22 c0 -22 -4 -40 -10 -40 -5 0 -10 18 -10 40 0 22 5 40 10 40 6 0
10 -18 10 -40z m520 -7 c-1 -16 -26 -40 -37 -36 -18 6 -16 23 2 23 8 0 15 5
15 10 0 6 5 10 10 10 6 0 10 -3 10 -7z m-840 -23 c0 -5 -4 -10 -10 -10 -5 0
-10 5 -10 10 0 6 5 10 10 10 6 0 10 -4 10 -10z m631 -13 c-13 -13 -26 -3 -16
12 3 6 11 8 17 5 6 -4 6 -10 -1 -17z m239 -26 c0 -6 19 -11 43 -13 l42 -3 -27
-14 c-16 -8 -28 -20 -28 -28 0 -20 -10 -16 -46 22 -41 41 -41 45 -9 45 14 0
25 -4 25 -9z m-612 -31 c2 -24 2 -25 -10 -4 -7 12 -19 19 -27 16 -9 -3 -11 0
-6 7 12 20 40 7 43 -19z m336 9 c-6 -11 -24 -2 -24 11 0 5 7 7 15 4 8 -4 12
-10 9 -15z m-43 -14 c-2 -17 -36 -11 -39 7 -3 14 1 16 18 10 12 -4 21 -12 21
-17z m455 -13 c6 -4 15 -23 19 -42 9 -42 35 -79 55 -80 10 0 16 -12 17 -36 2
-40 -20 -43 -25 -4 -3 18 -6 20 -13 9 -7 -11 -9 -10 -9 6 0 15 -3 16 -12 7
-22 -22 -30 -13 -23 27 6 34 3 41 -20 59 -19 16 -25 27 -20 42 7 21 13 24 31
12z m-746 -27 c0 -16 -27 -32 -37 -22 -3 4 -3 13 0 22 8 20 37 20 37 0z m290
-20 c0 -8 -4 -15 -9 -15 -5 0 -11 7 -15 15 -3 9 0 15 9 15 8 0 15 -7 15 -15z
m220 -10 c0 -15 -38 -40 -47 -31 -3 3 5 14 18 25 29 25 29 25 29 6z m-239 -30
c18 -12 33 -45 19 -45 -5 0 -8 -18 -6 -40 2 -25 -1 -40 -8 -40 -6 0 -18 -5
-26 -10 -13 -8 -13 -11 3 -22 25 -18 24 -69 -2 -318 -6 -52 -11 -100 -11 -106
0 -16 -46 -34 -88 -34 -36 0 -112 17 -112 25 0 14 23 113 29 130 5 11 16 56
26 100 10 44 23 87 29 95 16 19 36 89 36 124 0 15 7 41 16 57 12 25 18 28 30
18 21 -17 29 -4 25 41 -3 40 6 45 40 25z m-311 -25 c0 -5 -5 -10 -11 -10 -6 0
-8 -7 -5 -16 17 -45 18 -64 2 -64 -13 0 -15 -6 -10 -27 4 -16 11 -36 15 -45 5
-9 9 -41 9 -70 -1 -46 -7 -92 -37 -286 -8 -52 -65 -74 -131 -51 -28 10 -31 14
-27 42 2 18 16 64 30 102 27 73 28 77 45 162 6 28 20 63 31 77 11 13 16 31 13
40 -4 9 0 24 8 34 9 9 18 37 22 62 6 40 18 59 39 60 4 0 7 -4 7 -10z m969 -40
c5 -17 16 -29 23 -28 9 2 12 -7 10 -29 -2 -27 2 -33 18 -33 11 0 20 -5 20 -10
0 -6 10 -15 23 -20 12 -5 16 -9 10 -9 -7 -1 -13 -9 -13 -18 -1 -21 -33 -63
-48 -63 -17 0 -19 23 -6 49 14 27 9 45 -6 21 -7 -11 -13 -11 -32 -3 -13 7 -18
12 -12 12 14 1 1 70 -14 80 -5 3 -14 23 -20 44 -10 35 -9 37 13 37 17 0 26 -8
34 -30z m-469 -14 c0 -11 -19 -15 -25 -6 -3 5 1 10 9 10 9 0 16 -2 16 -4z m47
-2 c-3 -3 -12 -4 -19 -1 -8 3 -5 6 6 6 11 1 17 -2 13 -5z m223 -14 c0 -15 -7
-20 -27 -20 -25 0 -26 0 -8 20 10 11 22 20 27 20 4 0 8 -9 8 -20z m-215 -121
c-1 -56 -7 -94 -14 -98 -6 -4 -14 -42 -16 -86 -3 -42 -9 -83 -15 -90 -7 -8 -7
-21 -1 -36 6 -16 4 -33 -5 -51 -11 -22 -23 -28 -68 -33 -81 -10 -95 -3 -93 50
1 25 5 45 10 45 4 0 7 7 7 15 0 8 4 23 9 33 5 9 15 38 23 65 7 26 16 47 20 47
4 0 8 10 8 23 0 12 9 40 20 62 14 28 17 42 9 52 -18 21 -2 46 26 40 31 -5 45
12 16 20 -42 11 -19 29 40 32 l27 1 -3 -91z m167 41 c-7 -11 -8 -20 -3 -20 14
0 19 -31 9 -57 -6 -19 -4 -23 13 -23 16 0 18 -3 9 -20 -6 -11 -8 -46 -4 -88 6
-57 4 -71 -11 -86 -15 -14 -16 -19 -5 -26 11 -7 12 -14 2 -35 -7 -14 -12 -39
-12 -55 0 -38 -11 -43 -70 -35 -55 8 -64 25 -36 68 16 25 29 81 53 242 10 61
20 112 24 115 3 3 9 18 13 34 5 22 10 26 19 17 9 -9 9 -16 -1 -31z m373 -111
c-3 -4 -12 -6 -20 -3 -8 4 -13 10 -10 15 3 4 12 6 20 3 8 -4 13 -10 10 -15z
m825 -139 c0 -5 -7 -10 -16 -10 -8 0 -12 5 -9 10 3 6 10 10 16 10 5 0 9 -4 9
-10z m-100 -82 c0 -5 -9 -8 -20 -8 -23 0 -26 10 -8 28 9 9 14 9 20 -1 4 -6 8
-15 8 -19z m-590 -28 c0 -5 -9 -10 -21 -10 -11 0 -17 5 -14 10 3 6 13 10 21
10 8 0 14 -4 14 -10z m566 -57 c-14 -14 -23 4 -13 27 l10 25 5 -23 c2 -13 1
-26 -2 -29z m-676 27 c17 -11 6 -25 -25 -33 -15 -3 -13 -5 8 -6 40 -1 29 -25
-13 -29 -18 -2 -43 -1 -57 3 -19 4 -22 9 -14 24 6 10 7 21 3 25 -20 21 68 35
98 16z m-120 -10 c0 -5 -4 -10 -9 -10 -6 0 -13 5 -16 10 -3 6 1 10 9 10 9 0
16 -4 16 -10z m0 -46 c0 -8 -5 -12 -10 -9 -6 4 -8 11 -5 16 9 14 15 11 15 -7z
m890 -234 c0 -16 -4 -32 -10 -35 -6 -4 -10 10 -10 35 0 25 4 39 10 35 6 -3 10
-19 10 -35z m-316 -120 c17 -16 -23 -43 -52 -36 -32 8 -34 8 -97 0 -35 -4 -61
-1 -89 11 -21 9 -36 18 -33 21 2 3 26 7 52 9 26 2 50 7 53 10 9 9 155 -5 166
-15z m-1000 -99 c121 -5 227 -7 235 -2 15 7 290 0 485 -13 97 -6 108 -12 104
-61 -3 -27 0 -30 32 -35 49 -8 60 -17 60 -48 0 -27 -34 -164 -45 -181 -6 -10
-170 -5 -310 9 -55 6 -129 13 -165 16 -82 5 -127 9 -273 25 -134 14 -167 7
-167 -36 0 -14 -4 -25 -10 -25 -5 0 -10 -15 -10 -32 0 -50 -10 -58 -60 -52
-248 28 -310 39 -310 53 0 5 33 11 74 13 41 2 72 0 70 -3 -2 -4 41 -6 96 -6
69 0 100 4 100 11 0 7 -17 13 -37 13 -68 3 -118 9 -130 16 -6 4 -55 8 -107 10
-64 1 -96 6 -96 13 0 19 26 24 128 24 94 0 146 12 112 24 -12 5 -53 12 -92 15
-4 1 -7 9 -8 19 -3 71 -5 73 -27 69 -13 -2 -23 0 -23 4 0 5 23 9 50 9 50 0 79
16 93 51 5 12 7 11 16 -1 10 -13 12 -13 21 0 7 12 4 16 -18 18 -15 2 -35 11
-46 20 -11 11 -38 18 -70 19 -28 1 -54 2 -58 2 -11 1 -30 40 -24 50 6 8 73 7
410 -8z m-474 -291 c0 -5 -9 -10 -21 -10 -11 0 -17 5 -14 10 3 6 13 10 21 10
8 0 14 -4 14 -10z m-67 -7 c-7 -2 -19 -2 -25 0 -7 3 -2 5 12 5 14 0 19 -2 13
-5z m27 -84 c0 -11 -27 -12 -34 0 -3 4 -3 11 0 14 8 8 34 -3 34 -14z m60 1 c0
-5 -12 -10 -27 -10 -22 0 -25 2 -13 10 20 13 40 13 40 0z m215 -72 c61 -5 119
-11 131 -11 14 -1 19 -7 17 -18 -4 -13 -19 -15 -96 -13 -180 6 -237 15 -237
35 0 14 34 29 55 23 11 -3 70 -10 130 -16z m1595 -976 c0 -4 -27 -22 -61 -40
-69 -37 -71 -28 -2 17 47 32 63 37 63 23z m40 -189 c-13 -20 -70 -57 -70 -45
0 4 10 14 22 22 11 8 28 23 37 32 19 22 26 16 11 -9z m-62 -97 c-10 -7 -18
-18 -18 -25 0 -6 -4 -11 -10 -11 -5 0 -10 3 -10 7 0 11 33 43 44 43 6 0 3 -7
-6 -14z"/>
<path d="M827 2904 c-11 -11 5 -34 24 -34 10 0 19 -6 20 -12 0 -7 5 -2 10 11
5 13 8 25 7 26 -9 7 -56 14 -61 9z"/>
<path d="M960 2840 c0 -5 5 -10 10 -10 6 0 10 5 10 10 0 6 -4 10 -10 10 -5 0
-10 -4 -10 -10z"/>
<path d="M2651 4478 c15 -28 25 -36 116 -97 39 -27 89 -63 110 -80 20 -17 46
-31 56 -31 10 0 20 -7 23 -15 4 -8 17 -15 29 -15 13 0 30 -7 38 -15 8 -7 27
-17 42 -21 26 -6 27 -5 22 18 -8 30 12 61 34 53 9 -3 22 -18 29 -33 7 -16 15
-22 17 -14 3 6 20 12 39 12 19 0 34 5 34 10 0 6 9 10 20 10 13 0 18 5 14 15
-4 9 0 15 9 15 8 0 17 8 19 18 4 15 12 18 37 14 22 -3 31 0 31 9 1 10 5 8 15
-5 13 -18 15 -18 21 -2 9 24 23 1 24 -39 1 -25 3 -27 9 -10 13 33 21 126 11
120 -6 -4 -10 3 -10 15 0 12 -5 18 -10 15 -7 -4 -7 -12 0 -24 6 -12 5 -23 -3
-34 -15 -21 -43 -17 -61 9 -14 18 -15 18 -37 -10 l-23 -29 -12 34 -12 34 -12
-30 -12 -30 -13 31 c-11 28 -55 55 -55 34 0 -21 -32 -17 -54 7 -24 25 -34 26
-78 8 -13 -5 -18 -2 -18 8 0 9 -13 18 -30 22 -21 5 -30 13 -30 26 0 18 -9 19
-170 19 l-171 0 12 -22z m526 -224 c-3 -3 -12 -4 -19 -1 -8 3 -5 6 6 6 11 1
17 -2 13 -5z m-110 -30 c-3 -3 -12 -4 -19 -1 -8 3 -5 6 6 6 11 1 17 -2 13 -5z"/>
<path d="M7256 4478 c-9 -12 -16 -30 -16 -38 0 -9 -10 -27 -22 -40 -23 -25
-32 -79 -15 -91 14 -10 -1 -29 -22 -29 -9 0 -26 -10 -37 -23 -17 -19 -18 -25
-7 -35 7 -7 13 -27 13 -45 0 -18 5 -39 10 -47 6 -10 10 -11 10 -2 0 6 5 12 10
12 6 0 10 -8 10 -18 0 -11 12 -22 31 -29 27 -10 30 -15 20 -27 -9 -11 -10 -20
-1 -35 6 -12 8 -21 4 -21 -3 0 -1 -7 6 -15 9 -11 16 -12 26 -4 9 7 19 7 34 -1
12 -6 28 -9 36 -6 8 3 14 -1 14 -9 0 -11 6 -12 23 -6 30 12 57 -4 57 -32 0
-36 61 -70 128 -73 31 -1 63 -3 70 -3 8 -1 11 -8 8 -19 -5 -13 5 -22 42 -38
26 -12 60 -25 77 -29 46 -10 59 -25 38 -41 -17 -12 -17 -14 6 -38 18 -19 35
-26 61 -26 45 0 54 -8 33 -29 -15 -14 -14 -16 18 -25 19 -6 40 -18 47 -28 7
-10 17 -18 23 -18 5 0 9 180 9 465 l0 465 -364 0 -365 0 -15 -22z"/>
<path d="M3490 4349 c0 -5 5 -7 10 -4 6 3 10 8 10 11 0 2 -4 4 -10 4 -5 0 -10
-5 -10 -11z"/>
<path d="M3521 4324 c0 -11 3 -14 6 -6 3 7 2 16 -1 19 -3 4 -6 -2 -5 -13z"/>
<path d="M6355 4311 c-7 -12 12 -24 25 -16 11 7 4 25 -10 25 -5 0 -11 -4 -15
-9z"/>
<path d="M6490 4309 c0 -5 5 -7 10 -4 6 3 10 8 10 11 0 2 -4 4 -10 4 -5 0 -10
-5 -10 -11z"/>
<path d="M6226 4275 c-15 -12 -17 -18 -8 -27 9 -9 21 -8 53 1 38 11 40 13 22
26 -23 18 -43 18 -67 0z m29 -5 c3 -5 1 -10 -4 -10 -6 0 -11 5 -11 10 0 6 2
10 4 10 3 0 8 -4 11 -10z"/>
<path d="M3136 4146 c3 -9 11 -16 16 -16 13 0 5 23 -10 28 -7 2 -10 -2 -6 -12z"/>
<path d="M26 4115 c-8 -21 3 -45 20 -45 9 0 14 11 14 30 0 32 -23 42 -34 15z"/>
<path d="M7085 4110 c-8 -13 3 -30 20 -30 14 0 27 24 18 34 -10 9 -31 7 -38
-4z"/>
<path d="M6330 3708 c-13 -5 -33 -16 -42 -25 -10 -9 -18 -13 -18 -10 0 4 -9
-2 -20 -13 -14 -14 -28 -18 -45 -14 -29 7 -55 -10 -55 -36 0 -13 -11 -20 -37
-25 -45 -8 -93 -32 -93 -45 0 -6 -6 -10 -12 -10 -19 0 -60 -90 -48 -105 5 -6
7 -14 4 -18 -3 -3 -3 -14 0 -24 5 -15 13 -18 35 -15 35 5 56 -25 47 -64 -5
-19 -3 -24 14 -24 25 0 26 -14 0 -40 -25 -25 -16 -49 21 -57 32 -6 38 -18 14
-27 -23 -8 -18 -25 10 -32 14 -3 30 -15 35 -25 6 -10 17 -16 24 -13 8 3 17 1
21 -5 3 -6 15 -11 26 -11 15 0 20 -6 17 -22 -4 -29 29 -48 82 -48 22 0 50 -4
63 -9 22 -8 26 -5 42 32 22 49 22 133 1 181 -8 17 -17 51 -20 76 -2 25 -17 67
-31 95 -21 39 -25 53 -16 67 6 10 7 19 1 23 -5 3 -6 21 -3 40 6 35 -4 43 -42
35 -25 -5 -136 13 -129 20 13 13 93 32 139 34 22 0 49 7 60 14 17 11 14 12
-28 7 l-47 -6 25 38 c15 21 32 41 38 45 21 13 -6 27 -33 16z"/>
<path d="M6020 3630 c0 -5 5 -10 10 -10 6 0 10 5 10 10 0 6 -4 10 -10 10 -5 0
-10 -4 -10 -10z"/>
<path d="M5965 3610 c-3 -5 1 -10 9 -10 9 0 16 5 16 10 0 6 -4 10 -9 10 -6 0
-13 -4 -16 -10z"/>
<path d="M7985 3550 c-3 -5 -1 -10 4 -10 6 0 11 5 11 10 0 6 -2 10 -4 10 -3 0
-8 -4 -11 -10z"/>
<path d="M4449 3334 c-9 -25 -11 -26 -28 -10 -17 15 -20 15 -42 -2 -13 -10
-32 -22 -42 -25 -9 -4 -21 -16 -25 -27 -4 -12 -19 -27 -32 -33 -28 -14 -40
-47 -17 -47 8 0 22 -9 32 -20 9 -10 20 -19 24 -18 39 4 131 -4 126 -12 -4 -6
5 -10 19 -10 19 0 26 5 26 20 0 21 2 22 61 24 26 1 43 9 58 26 15 16 24 21 27
13 3 -7 12 -9 20 -6 8 3 14 0 14 -6 0 -6 -8 -11 -17 -11 -16 0 -16 -2 -3 -10
13 -9 10 -14 -14 -34 -20 -17 -27 -29 -22 -41 8 -22 -10 -45 -35 -45 -23 0
-24 -8 -5 -29 17 -20 4 -61 -19 -61 -12 0 -16 -8 -14 -32 3 -55 0 -68 -16 -62
-17 7 -21 -21 -5 -31 14 -9 12 -35 -2 -35 -17 0 -21 -90 -5 -109 9 -11 9 -15
0 -18 -18 -6 -16 -28 4 -66 9 -18 16 -35 15 -38 -4 -15 40 -17 45 -2 5 14 8
14 19 -2 10 -14 17 -15 27 -7 8 7 17 9 20 6 4 -4 18 1 32 10 20 13 30 15 40 6
7 -6 16 -7 19 -2 8 13 71 8 90 -7 15 -13 20 -9 17 14 -1 6 8 -2 20 -17 22 -29
47 -36 66 -17 7 7 17 8 25 3 7 -5 24 -7 37 -5 30 4 71 -18 71 -37 0 -8 -16
-30 -35 -48 l-36 -33 28 -6 c15 -4 38 -11 50 -17 11 -6 27 -7 33 -3 23 14 30
-19 9 -41 l-21 -22 57 -13 c31 -7 58 -17 62 -22 3 -5 -4 -21 -14 -36 -21 -27
-16 -71 7 -71 6 0 8 -11 4 -27 l-7 -28 25 23 c28 25 58 29 58 7 0 -19 10 -19
35 -1 11 7 45 16 75 19 55 7 80 24 80 56 -1 14 -2 14 -13 -1 -7 -9 -17 -14
-23 -10 -17 13 -14 31 7 43 17 9 23 8 30 -2 7 -11 12 -9 24 8 9 12 21 20 29
17 20 -8 69 15 63 30 -7 18 8 39 29 42 9 2 20 8 24 14 4 6 13 8 21 5 23 -8 43
10 32 30 -14 24 12 74 47 89 33 14 29 39 -6 30 -31 -8 -33 19 -2 40 26 19 18
29 -36 46 -34 11 -41 11 -51 -4 -14 -18 -40 -13 -49 10 -3 9 1 14 14 14 11 0
20 3 20 8 0 10 -38 42 -50 42 -10 0 -11 3 -14 33 0 6 -12 14 -26 15 -36 5 -60
31 -60 64 0 18 -5 28 -15 28 -17 0 -75 -55 -75 -70 0 -5 -6 -7 -14 -4 -21 8
-32 -17 -12 -28 22 -12 11 -28 -20 -28 -15 0 -24 6 -24 15 0 21 -13 19 -28 -5
-6 -11 -18 -17 -26 -14 -22 8 -27 -22 -7 -45 10 -11 21 -18 25 -14 3 3 6 -1 6
-10 0 -9 -10 -21 -22 -28 -13 -6 -30 -21 -39 -32 -11 -13 -22 -18 -34 -13 -14
5 -16 9 -7 18 7 7 12 22 12 35 0 13 5 23 12 23 9 0 9 3 0 12 -16 16 -15 28 2
28 7 0 16 14 20 30 9 50 54 117 86 130 17 7 30 21 32 33 2 18 12 23 50 27 52
6 64 14 70 45 2 11 10 19 16 18 22 -5 12 5 -31 30 -28 17 -51 23 -69 20 -17
-3 -33 1 -43 11 -9 9 -22 16 -30 16 -7 0 -25 7 -41 14 -15 8 -32 13 -36 10 -8
-5 -34 2 -93 26 -11 5 -41 16 -67 26 -27 9 -48 20 -48 25 0 4 -16 5 -36 2 -30
-5 -36 -3 -41 16 -3 11 -11 21 -18 21 -16 0 -47 35 -39 43 7 7 -46 2 -87 -8
-16 -4 -29 -2 -33 4 -4 6 -27 11 -52 11 -32 0 -44 4 -44 14 0 8 5 18 10 21 13
8 13 62 0 70 -6 3 -13 0 -16 -9 -7 -18 -41 -17 -48 1 -7 18 -55 16 -62 -2 -6
-14 -8 -14 -19 1 -11 15 -14 15 -39 -1 -15 -10 -26 -14 -25 -9 7 40 -17 46
-32 8z m489 -412 c4 -23 -13 -52 -29 -52 -18 0 -30 39 -19 61 14 26 44 21 48
-9z m-296 -114 c-16 -16 -37 4 -28 28 6 16 8 16 23 1 13 -13 15 -19 5 -29z
m132 -21 c16 -12 17 -17 6 -37 l-12 -22 -20 20 c-12 12 -18 27 -15 36 8 19 18
20 41 3z m236 -89 c0 -16 -67 -38 -115 -38 -32 0 -45 4 -45 14 0 19 23 36 51
36 60 1 69 2 75 11 6 11 34 -7 34 -23z m310 -3 c0 -16 -6 -25 -15 -25 -9 0
-15 9 -15 25 0 16 6 25 15 25 9 0 15 -9 15 -25z m-502 -12 c-4 -22 -22 -20
-26 1 -2 10 3 16 13 16 10 0 15 -7 13 -17z m352 -57 c0 -18 -17 -29 -30 -21
-8 5 -7 11 1 21 15 18 29 18 29 0z m113 -323 c-7 -2 -19 -2 -25 0 -7 3 -2 5
12 5 14 0 19 -2 13 -5z"/>
<path d="M3448 3333 c-22 -5 -22 -11 -3 -57 13 -31 19 -35 43 -32 45 6 62 17
62 40 0 41 -47 64 -102 49z"/>
<path d="M3090 3210 c0 -11 5 -20 10 -20 6 0 10 9 10 20 0 11 -4 20 -10 20 -5
0 -10 -9 -10 -20z"/>
<path d="M3131 3204 c0 -11 3 -14 6 -6 3 7 2 16 -1 19 -3 4 -6 -2 -5 -13z"/>
<path d="M2939 3206 c-3 -3 -26 -8 -50 -9 -33 -3 -44 -7 -43 -20 2 -23 -24
-29 -31 -7 -6 19 -8 19 -38 4 -18 -9 -33 -18 -35 -19 -1 -1 3 -14 9 -29 15
-31 6 -44 -17 -25 -14 12 -20 9 -45 -19 -16 -18 -29 -40 -29 -50 0 -10 -4 -22
-10 -28 -8 -8 -20 -148 -19 -248 0 -21 -5 -43 -10 -50 -5 -6 -14 -35 -19 -65
-9 -48 -8 -56 8 -70 28 -25 32 -53 10 -81 -20 -25 -20 -25 -20 -2 0 13 -6 22
-15 22 -20 0 -19 -39 1 -47 14 -5 13 -9 -7 -24 -13 -10 -32 -19 -42 -19 -17 0
-35 -26 -24 -36 3 -3 14 0 26 8 16 10 23 10 33 0 10 -10 7 -17 -16 -35 -26
-21 -27 -26 -16 -47 11 -20 13 -21 22 -7 13 25 37 21 48 -7 9 -24 23 -31 115
-52 37 -8 55 -22 55 -40 0 -10 -7 -13 -26 -8 -20 5 -26 2 -31 -15 -3 -11 -11
-21 -19 -21 -22 0 -27 -20 -10 -39 10 -11 25 -16 41 -14 20 4 23 2 18 -17 -5
-19 -10 -21 -47 -15 -22 4 -45 11 -51 15 -11 9 -16 10 -41 10 -14 0 -14 3 -4
15 7 9 10 19 6 22 -4 4 -11 1 -16 -7 -7 -11 -12 -11 -23 -2 -11 9 -23 7 -54
-8 -58 -28 -65 -39 -49 -84 8 -24 16 -33 19 -25 4 10 6 9 6 -3 1 -10 10 -22
21 -28 26 -14 16 -33 -12 -24 -15 4 -19 2 -16 -7 6 -18 127 -33 145 -18 9 8
14 4 19 -15 8 -33 18 -33 32 -1 12 25 36 33 47 15 3 -5 15 -10 26 -10 10 0 19
-4 19 -8 0 -13 -23 -32 -39 -32 -9 0 -26 -13 -39 -30 -21 -25 -27 -28 -50 -19
-15 6 -30 16 -34 22 -6 9 -11 8 -19 -3 -8 -11 -12 -12 -16 -2 -7 17 -43 15
-43 -3 0 -8 7 -15 16 -15 9 0 18 -8 21 -19 3 -12 11 -17 23 -14 23 6 35 -14
19 -33 -8 -10 -15 -12 -23 -4 -13 13 -26 13 -26 1 0 -12 28 -41 39 -41 4 0 17
8 29 18 16 14 18 22 10 30 -8 8 -8 15 3 28 12 14 14 13 24 -16 10 -31 11 -31
32 -13 11 10 23 30 25 43 2 20 8 24 27 22 14 -1 31 -12 39 -23 8 -11 20 -18
28 -15 8 3 14 2 14 -3 0 -4 -19 -13 -42 -18 -35 -8 -39 -11 -24 -18 11 -5 21
-3 25 4 9 15 25 -2 40 -42 11 -28 25 -35 36 -17 9 15 58 13 52 -2 -2 -7 -14
-12 -25 -10 -19 3 -22 -2 -22 -30 0 -19 6 -40 13 -47 10 -11 10 -14 0 -18 -7
-3 -13 -11 -13 -18 0 -7 -12 -16 -27 -20 -35 -8 -65 -39 -57 -59 5 -13 9 -13
27 -1 30 18 93 29 101 17 3 -6 -8 -16 -24 -24 -17 -7 -37 -25 -44 -40 -13 -25
-12 -27 8 -30 11 -2 33 1 48 6 35 13 108 -18 108 -46 0 -10 7 -18 15 -18 8 0
15 -6 15 -12 1 -24 37 -56 66 -60 21 -2 29 -9 30 -24 2 -29 12 -44 30 -44 14
0 48 -27 50 -39 4 -31 19 -68 31 -78 22 -17 43 -5 43 24 0 19 4 24 16 19 9 -3
25 -6 36 -6 22 0 20 -24 -3 -26 -8 -1 -20 -2 -26 -3 -7 0 -13 -12 -13 -26 0
-25 11 -30 53 -27 10 1 30 -15 46 -38 18 -25 31 -36 34 -28 4 10 8 10 14 1 4
-6 24 -14 43 -18 23 -4 39 -14 45 -28 7 -14 19 -22 35 -22 16 0 28 -8 35 -23
11 -25 25 -28 43 -10 9 9 8 16 -4 29 -9 10 -13 22 -9 28 9 15 55 -17 49 -34
-6 -16 25 -35 45 -27 7 2 17 -2 22 -9 7 -11 9 -10 9 4 0 9 6 18 13 18 6 1 23
3 37 4 14 1 32 4 40 7 35 14 88 18 92 7 3 -8 12 -9 28 -4 l25 8 -27 9 c-16 5
-28 17 -28 25 0 12 8 14 35 10 32 -5 35 -4 35 19 0 30 30 33 37 4 4 -15 11
-19 24 -15 26 9 24 -13 -3 -36 l-21 -19 21 0 c12 0 26 9 32 19 5 11 20 23 31
26 15 5 18 10 10 15 -18 11 -31 76 -18 89 6 6 23 11 38 11 21 0 28 -5 31 -23
2 -16 10 -22 28 -22 20 0 25 -5 23 -22 -2 -15 4 -24 19 -29 l21 -6 -23 -13
c-23 -12 -23 -13 -3 -19 11 -4 28 -4 37 0 19 7 22 34 4 34 -7 0 -4 6 6 12 15
8 21 8 24 0 5 -17 31 -15 48 3 19 19 44 20 44 2 0 -14 21 -26 78 -45 42 -14
62 -6 62 23 0 29 25 51 43 37 15 -12 101 -6 105 8 2 5 15 10 28 10 15 0 24 6
24 15 0 10 10 15 30 15 17 0 30 5 30 10 0 6 -6 10 -13 10 -7 0 -22 6 -33 14
-18 14 -18 15 8 25 15 5 32 20 39 32 l12 23 18 -23 c11 -13 19 -18 19 -12 0 8
6 7 21 -1 17 -10 23 -10 26 0 3 6 15 12 28 12 42 0 44 43 2 54 -17 4 -19 8 -9
18 19 19 14 25 -20 20 -26 -4 -30 -2 -25 12 4 11 1 19 -11 23 -9 4 -34 24 -56
45 -21 21 -45 38 -54 38 -16 0 -41 28 -42 48 0 7 12 12 30 12 25 0 30 -4 30
-25 0 -22 4 -25 34 -25 19 0 38 -5 42 -11 3 -6 17 -8 30 -5 14 4 24 2 24 -4 0
-5 -7 -10 -15 -10 -8 0 -15 -4 -15 -10 0 -5 6 -10 14 -10 7 0 16 -9 19 -20 3
-12 14 -20 26 -20 12 0 21 -4 21 -9 0 -6 13 -24 28 -41 l28 -31 20 41 c18 38
34 52 34 29 0 -6 6 -9 14 -6 7 3 24 -1 35 -10 12 -8 25 -13 28 -10 2 3 -7 13
-21 22 -14 10 -23 21 -20 26 3 5 -5 9 -18 9 -16 0 -30 11 -43 33 -19 30 -20
30 -23 10 -2 -13 -8 -23 -14 -23 -5 0 -7 7 -4 16 4 9 1 23 -5 30 -9 12 -15 12
-27 2 -13 -11 -14 -10 -10 1 3 10 -13 24 -46 41 -47 24 -83 29 -71 9 3 -4 12
-6 20 -2 24 9 17 -13 -7 -23 -18 -8 -28 -5 -46 12 l-23 22 23 16 22 16 -21 0
c-28 0 -38 16 -17 28 11 6 29 3 56 -10 22 -11 43 -17 46 -13 3 3 -4 8 -16 12
-28 7 -28 19 1 28 13 4 17 8 10 12 -7 2 -13 11 -13 18 0 10 10 12 37 8 32 -5
36 -4 30 12 -9 22 12 52 24 33 4 -6 5 -25 2 -41 -4 -22 -3 -29 7 -25 29 9 19
103 -12 111 -29 8 -16 32 18 32 41 1 57 13 50 40 -4 17 0 27 17 38 24 16 77
12 77 -5 0 -6 -9 -8 -20 -5 -15 4 -20 0 -20 -14 0 -10 5 -19 10 -19 6 0 10 5
10 10 0 6 9 10 20 10 11 0 20 -4 20 -10 0 -5 7 -10 15 -10 9 0 15 -9 15 -25 0
-16 6 -25 15 -25 22 0 19 17 -10 54 -29 38 -31 46 -10 46 27 0 16 18 -15 25
-16 4 -30 10 -30 15 0 5 -3 15 -6 24 -5 13 2 16 35 16 28 0 44 -5 47 -15 8
-19 24 -20 24 -2 0 23 -35 47 -67 47 -23 0 -32 5 -36 22 -8 29 9 48 42 48 14
0 33 5 41 10 13 8 12 10 -3 10 -27 0 -79 29 -72 40 7 11 0 13 -67 14 -32 1
-49 -3 -53 -12 -3 -9 -14 -12 -35 -7 -25 6 -30 3 -30 -12 0 -12 11 -23 28 -30
24 -9 22 -10 -18 -5 -25 2 -49 8 -54 13 -6 5 -21 9 -33 9 -13 0 -29 5 -36 10
-7 6 -21 17 -32 25 -16 12 -17 16 -6 24 10 6 10 10 1 16 -6 4 -14 4 -17 1 -3
-3 -12 -1 -20 6 -10 8 -17 8 -26 -1 -9 -9 -9 -14 3 -21 8 -5 11 -13 6 -17 -5
-4 -11 -2 -13 5 -3 6 -13 12 -22 12 -28 0 -33 12 -11 27 15 11 18 18 10 31
-24 42 -26 43 -55 32 -24 -9 -27 -14 -22 -40 8 -38 -9 -48 -35 -20 -27 29 -82
25 -86 -7 -2 -13 -8 -23 -13 -23 -7 0 -8 -12 -4 -30 6 -28 5 -30 -23 -30 -40
0 -66 30 -58 67 4 18 1 40 -9 59 -8 16 -15 34 -15 41 0 7 -6 16 -14 20 -16 10
-46 66 -46 87 0 18 -49 46 -79 46 -11 0 -22 4 -25 8 -3 5 -24 6 -48 2 -33 -5
-51 -2 -78 14 -19 11 -36 24 -38 28 -6 14 -31 9 -40 -8 -8 -15 -10 -15 -15 0
-4 9 -2 16 4 16 5 0 3 13 -5 29 -16 31 -31 38 -116 55 -44 9 -55 15 -55 31 -1
11 -4 25 -8 32 -4 6 -4 19 -1 28 5 11 -3 8 -21 -9 -15 -14 -31 -26 -36 -26
-15 0 -21 -42 -8 -52 11 -8 10 -9 -3 -4 -15 4 -18 -1 -18 -30 0 -22 -6 -37
-15 -40 -8 -4 -15 -14 -15 -23 0 -9 -7 -25 -15 -35 -8 -11 -15 -28 -15 -37 0
-10 -8 -25 -17 -34 -9 -10 -17 -24 -18 -34 -1 -9 -5 -23 -9 -32 -4 -9 -6 -20
-5 -25 6 -35 -2 -46 -32 -42 -27 4 -30 2 -25 -16 3 -12 6 -27 6 -33 0 -7 5
-13 10 -13 6 0 10 7 10 15 0 8 5 15 10 15 6 0 10 -11 10 -25 0 -18 -5 -25 -20
-25 -12 0 -20 -7 -20 -17 0 -9 -3 -13 -7 -9 -4 4 -6 22 -5 41 2 32 0 35 -25
37 -15 0 -37 0 -48 0 -13 -1 -26 9 -38 29 -10 19 -23 29 -31 26 -8 -3 -50 -11
-94 -17 -63 -10 -89 -9 -118 0 -29 10 -39 10 -42 1 -2 -6 -10 -18 -19 -26 -8
-8 -11 -19 -8 -25 8 -13 -15 -13 -35 0 -13 9 -12 13 8 28 l22 17 -20 13 c-13
8 -34 10 -55 6 -27 -5 -36 -2 -41 10 -3 9 -12 16 -19 16 -7 0 -15 7 -19 15 -3
9 -19 15 -38 16 -18 0 -27 3 -20 6 6 2 12 11 12 19 0 11 -5 11 -25 2 -32 -14
-43 -4 -21 20 15 18 15 20 -9 46 -15 16 -35 27 -48 26 -41 -4 -67 0 -67 9 0 5
10 11 23 13 12 2 22 9 22 17 0 17 -87 40 -160 41 l-50 1 55 17 c43 12 88 15
208 13 106 -2 152 0 152 8 0 6 -4 11 -8 11 -5 0 -17 6 -27 14 -16 12 -17 16
-6 30 7 9 22 16 32 16 25 0 25 20 0 27 -19 5 -35 39 -25 55 5 8 13 8 105 -12
41 -9 69 -10 105 -2 32 7 50 7 52 1 3 -6 8 -6 16 0 15 13 74 23 146 25 57 2
91 17 122 51 17 19 19 19 22 -7 0 -6 7 -13 15 -16 10 -3 12 0 8 11 -5 14 2 32
39 99 8 14 9 31 2 55 -5 19 -6 48 -3 64 5 24 3 29 -12 29 -22 0 -43 61 -36
106 4 28 1 34 -24 46 -18 8 -29 22 -31 38 -6 54 -13 74 -21 61 -6 -10 -18 -1
-42 32 -26 34 -42 46 -66 49 -38 5 -38 5 -17 -27 15 -24 15 -25 -3 -25 -10 0
-29 7 -41 16 -15 10 -32 14 -48 10 -15 -4 -32 -2 -40 5 -8 7 -25 9 -41 5 -105
-26 -173 -22 -198 11 -11 14 -67 28 -76 19z m-119 -112 c0 -9 -7 -14 -17 -12
-25 5 -28 28 -4 28 12 0 21 -6 21 -16z m528 -52 c3 -16 -2 -22 -16 -22 -21 0
-36 25 -26 41 10 17 39 5 42 -19z m142 -127 c0 -8 -4 -15 -10 -15 -5 0 -10 7
-10 15 0 8 5 15 10 15 6 0 10 -7 10 -15z m-637 -61 c20 -158 21 -162 53 -196
17 -18 42 -41 55 -50 19 -14 21 -19 11 -26 -11 -7 -10 -11 4 -16 13 -5 15 -9
6 -18 -9 -9 -23 -2 -57 32 -25 24 -45 50 -45 58 0 7 -4 11 -8 8 -22 -13 -80
63 -92 119 -19 86 -11 131 23 145 35 14 42 7 50 -56z m444 55 c16 -16 4 -59
-17 -59 -23 0 -36 36 -20 55 15 18 22 19 37 4z m193 -119 c8 -15 6 -21 -9 -30
-27 -14 -41 -13 -62 6 -26 23 -13 44 27 44 23 0 37 -6 44 -20z m-533 -356 c-2
-2 -12 -1 -22 2 -17 7 -17 8 1 21 17 12 19 12 22 -2 2 -9 2 -19 -1 -21z m-77
-254 c0 -5 -4 -10 -9 -10 -6 0 -13 5 -16 10 -3 6 1 10 9 10 9 0 16 -4 16 -10z
m50 -80 c0 -5 14 -10 31 -10 20 0 28 4 23 12 -5 8 -2 9 10 5 10 -4 23 -7 29
-7 19 -1 -35 -27 -69 -33 -28 -5 -32 -3 -37 18 -2 14 0 25 4 25 5 0 9 -4 9
-10z m160 -40 c0 -5 -4 -10 -10 -10 -5 0 -10 5 -10 10 0 6 5 10 10 10 6 0 10
-4 10 -10z m187 -16 c-3 -3 -12 -4 -19 -1 -8 3 -5 6 6 6 11 1 17 -2 13 -5z
m48 -14 c3 -5 -3 -10 -15 -10 -12 0 -18 5 -15 10 3 6 10 10 15 10 5 0 12 -4
15 -10z m75 -30 c8 -5 11 -12 8 -16 -10 -9 -38 3 -38 16 0 12 10 13 30 0z
m1260 1 c0 -5 -7 -11 -15 -15 -9 -3 -15 0 -15 9 0 8 7 15 15 15 8 0 15 -4 15
-9z m-1220 -31 c0 -5 -2 -10 -4 -10 -3 0 -8 5 -11 10 -3 6 -1 10 4 10 6 0 11
-4 11 -10z m803 -51 c-5 -19 -7 -19 -15 -5 -10 18 -2 39 12 31 4 -3 6 -15 3
-26z m-1373 -168 c0 -6 -4 -13 -10 -16 -5 -3 -10 1 -10 9 0 9 5 16 10 16 6 0
10 -4 10 -9z m74 -114 c-3 -9 -10 -17 -15 -17 -11 0 -12 34 -2 44 11 11 24 -9
17 -27z m-12 -99 c-9 -9 -15 -9 -24 0 -9 9 -7 12 12 12 19 0 21 -3 12 -12z
m150 -13 c-2 -14 -6 -25 -8 -25 -2 0 -4 11 -4 25 0 14 4 25 9 25 4 0 6 -11 3
-25z m-27 -16 c-10 -15 -25 -10 -19 6 4 8 10 12 15 9 5 -3 7 -10 4 -15z m-32
-23 c15 -4 27 -13 27 -21 0 -8 5 -15 10 -15 6 0 10 -7 10 -15 0 -20 -19 -19
-71 5 -33 15 -38 20 -21 20 14 0 21 4 17 11 -4 6 -13 8 -21 5 -8 -3 -14 1 -14
10 0 10 6 14 18 11 9 -3 29 -8 45 -11z m1902 -106 c4 -6 -5 -10 -19 -10 -14 0
-26 5 -26 10 0 6 9 10 19 10 11 0 23 -4 26 -10z m-565 -40 c0 -5 -2 -10 -4
-10 -3 0 -8 5 -11 10 -3 6 -1 10 4 10 6 0 11 -4 11 -10z m500 -85 c0 -8 -7
-15 -15 -15 -8 0 -15 7 -15 15 0 8 7 15 15 15 8 0 15 -7 15 -15z m-20 -45 c0
-5 -6 -10 -14 -10 -8 0 -18 5 -21 10 -3 6 3 10 14 10 12 0 21 -4 21 -10z
m-1553 -42 c-3 -8 -6 -5 -6 6 -1 11 2 17 5 13 3 -3 4 -12 1 -19z m1478 12 c3
-5 1 -10 -4 -10 -6 0 -11 5 -11 10 0 6 2 10 4 10 3 0 8 -4 11 -10z m-225 -26
c0 -8 -5 -12 -10 -9 -6 4 -8 11 -5 16 9 14 15 11 15 -7z m200 7 c0 -6 -4 -13
-10 -16 -5 -3 -10 1 -10 9 0 9 5 16 10 16 6 0 10 -4 10 -9z m-390 -25 c0 -8 3
-21 6 -30 3 -9 1 -16 -5 -16 -6 0 -11 9 -11 20 0 11 -4 20 -10 20 -5 0 -10 5
-10 10 0 6 7 10 15 10 8 0 15 -6 15 -14z m310 -67 c0 -5 -12 -9 -27 -9 -26 0
-26 1 -8 14 20 14 35 12 35 -5z m-252 -23 c-2 -10 -7 -13 -17 -7 -8 6 -11 16
-7 27 8 21 30 4 24 -20z m-412 -23 c-10 -10 -19 5 -10 18 6 11 8 11 12 0 2 -7
1 -15 -2 -18z m560 -40 c-10 -10 -19 5 -10 18 6 11 8 11 12 0 2 -7 1 -15 -2
-18z m-766 -19 c0 -9 -7 -14 -17 -12 -25 5 -28 28 -4 28 12 0 21 -6 21 -16z"/>
<path d="M3763 3004 c-10 -25 18 -45 51 -36 39 11 44 29 11 42 -37 14 -55 12
-62 -6z"/>
<path d="M3800 2933 c0 -5 4 -14 9 -21 7 -11 9 -11 14 1 3 8 3 18 0 21 -9 8
-23 7 -23 -1z"/>
<path d="M5600 2721 c0 -11 26 -22 34 -14 12 12 5 23 -14 23 -11 0 -20 -4 -20
-9z"/>
<path d="M5705 2660 c-3 -5 -1 -10 4 -10 6 0 11 5 11 10 0 6 -2 10 -4 10 -3 0
-8 -4 -11 -10z"/>
<path d="M5730 2469 c0 -5 5 -7 10 -4 6 3 10 8 10 11 0 2 -4 4 -10 4 -5 0 -10
-5 -10 -11z"/>
<path d="M2540 2460 c0 -5 5 -10 10 -10 6 0 10 5 10 10 0 6 -4 10 -10 10 -5 0
-10 -4 -10 -10z"/>
<path d="M6650 2451 c-9 -7 -15 -27 -15 -58 0 -26 -3 -50 -7 -53 -4 -3 -10
-28 -12 -56 -3 -28 -12 -63 -20 -78 -10 -21 -13 -48 -9 -100 4 -51 2 -80 -8
-97 -14 -24 -20 -50 -19 -79 3 -103 6 -137 14 -149 6 -9 0 -20 -19 -35 -19
-15 -29 -36 -36 -71 -5 -28 -23 -70 -39 -93 -17 -24 -30 -51 -29 -60 2 -10 -7
-33 -19 -52 -12 -19 -27 -52 -33 -72 -10 -38 -23 -48 -32 -25 -3 6 -3 -3 0
-22 6 -36 -9 -55 -39 -45 -20 6 -34 -14 -19 -29 16 -16 14 -24 -9 -30 -27 -7
-25 -23 3 -32 22 -6 21 -7 -5 -17 -31 -11 -35 -30 -13 -68 19 -34 18 -40 -5
-40 -11 0 -20 5 -20 11 0 6 -7 18 -16 26 -14 15 -15 14 -12 -3 2 -15 -4 -20
-32 -24 -26 -4 -36 -11 -41 -30 -4 -14 -8 -20 -8 -15 -3 21 -21 -21 -21 -47 0
-16 -4 -28 -9 -28 -4 0 -6 -12 -3 -26 4 -25 3 -26 -27 -19 -27 6 -31 4 -31
-13 0 -11 5 -22 11 -24 6 -2 -8 -3 -30 -3 -28 0 -41 4 -41 13 0 7 5 10 10 7 6
-3 10 1 10 9 0 22 -12 20 -40 -6 -16 -15 -25 -18 -28 -10 -2 7 -10 12 -18 12
-25 0 -15 -16 19 -31 17 -8 32 -21 32 -31 0 -15 62 -78 78 -78 4 0 7 -7 7 -16
0 -9 -5 -13 -12 -10 -7 3 -21 9 -30 12 -10 4 -18 10 -18 14 0 14 -99 60 -105
50 -3 -6 0 -10 7 -10 7 0 5 -5 -6 -11 -14 -9 -20 -8 -27 2 -4 7 -11 10 -16 6
-4 -5 -3 -11 2 -15 6 -4 11 -21 12 -38 1 -17 3 -37 5 -45 2 -8 -5 -14 -17 -14
-13 0 -19 6 -17 17 2 11 -4 15 -15 14 -11 -2 -21 -16 -27 -40 -4 -21 -15 -40
-22 -43 -16 -6 -19 -33 -4 -33 6 0 10 -7 10 -15 0 -8 3 -15 8 -15 4 0 12 -11
19 -25 17 -37 -1 -30 -40 15 -18 22 -51 47 -72 56 -36 15 -40 15 -52 -2 -7
-10 -13 -21 -13 -26 0 -4 -8 -8 -18 -8 -30 0 -71 -24 -76 -44 -3 -11 -11 -16
-19 -13 -8 3 -30 -4 -48 -17 -19 -12 -47 -23 -64 -25 -16 -2 -35 -10 -42 -19
-11 -16 -12 -16 -13 1 0 28 -18 19 -25 -13 -4 -20 -13 -30 -25 -30 -10 0 -21
-7 -24 -16 -3 -9 -12 -14 -19 -11 -15 6 -39 -11 -55 -38 -10 -17 -11 -18 -12
-2 0 9 -4 17 -10 17 -5 0 -10 11 -10 25 0 14 -5 25 -11 25 -7 0 -8 -14 -4 -40
8 -50 -12 -55 -37 -9 -21 36 -23 56 -6 61 22 8 -1 25 -26 21 -32 -7 -45 -54
-24 -88 3 -6 4 -22 1 -37 -3 -18 -10 -25 -20 -21 -12 5 -12 7 -1 15 10 7 10
11 1 15 -7 2 -13 14 -13 25 0 11 -9 31 -20 45 -11 14 -20 33 -20 42 -1 13 -3
12 -12 -4 -24 -41 -35 -46 -52 -22 l-15 22 -21 -24 c-11 -13 -20 -18 -20 -12
0 12 -58 15 -84 5 -9 -3 -21 -24 -27 -46 -8 -30 -13 -38 -22 -29 -6 6 -19 11
-29 11 -22 0 -41 41 -24 52 7 5 5 8 -6 8 -9 0 -26 -12 -37 -26 -22 -28 -51
-27 -51 1 0 20 -14 19 -31 -1 -11 -14 -11 -18 2 -28 8 -6 18 -18 21 -27 10
-25 -12 -99 -29 -99 -7 0 -16 -6 -19 -14 -9 -22 -70 15 -67 40 5 39 -7 64 -30
64 -12 0 -35 12 -51 27 -31 28 -122 49 -140 32 -6 -5 -18 -9 -28 -9 -10 0 -18
-4 -18 -10 0 -5 12 -10 27 -10 21 0 24 -3 15 -12 -10 -10 -17 -10 -32 0 -12 7
-27 9 -42 3 l-23 -9 28 -12 c33 -16 33 -19 0 -50 -21 -21 -23 -26 -10 -28 12
-3 17 -14 17 -43 0 -21 5 -39 10 -39 15 0 12 -21 -6 -41 -14 -15 -13 -18 15
-30 26 -12 31 -20 31 -47 0 -67 -91 -62 1221 -62 l1192 0 -5 48 c-5 50 7 72
37 72 9 0 19 8 22 18 4 9 11 20 17 24 7 4 2 16 -12 31 -22 23 -30 67 -13 67 5
0 11 -10 13 -23 2 -14 11 -23 25 -25 20 -3 21 -1 12 33 -14 49 -3 90 29 115
22 18 24 24 14 40 -15 25 -15 30 1 30 21 0 35 35 43 101 3 35 11 69 16 76 6 7
5 19 -2 32 -6 12 -7 21 -2 21 5 0 8 24 7 53 -1 28 1 71 5 94 5 31 3 45 -8 57
-13 12 -13 19 -4 28 16 16 15 53 -2 68 -11 9 -12 18 -5 37 5 13 6 29 3 35 -3
5 4 12 16 15 14 4 18 8 10 13 -9 6 -9 13 -1 28 6 11 11 33 10 49 0 15 -3 22
-6 16 -7 -18 -23 -16 -23 2 0 9 -7 18 -15 21 -21 8 -19 26 2 22 12 -2 19 7 26
34 6 24 16 38 29 42 17 4 19 8 10 19 -15 18 -3 30 15 16 18 -15 45 8 38 32 -7
20 14 37 25 20 4 -8 17 -10 35 -5 28 7 28 7 7 15 -12 5 -22 13 -22 19 0 5 -9
10 -20 10 -26 0 -26 16 0 23 13 3 18 10 14 21 -4 10 -1 16 9 16 10 0 13 -7 10
-18 -2 -10 3 -24 12 -32 13 -11 19 -10 35 7 10 12 24 23 31 25 9 3 9 9 0 26
-6 12 -16 22 -21 22 -10 0 6 34 27 57 6 7 11 38 10 70 -2 53 -4 58 -23 56 -19
-2 -22 3 -22 33 0 20 6 38 13 41 20 7 13 48 -12 77 -13 14 -20 32 -17 40 3 7
-6 26 -20 41 -14 15 -26 36 -26 47 0 16 -33 73 -51 88 -9 8 -22 63 -20 83 1
10 -7 21 -22 26 -14 6 -27 15 -29 22 -3 9 -26 12 -73 11 -38 0 -63 3 -56 7 6
4 11 14 9 22 -2 9 7 15 25 17 15 2 27 7 27 12 0 6 -12 12 -27 16 -42 9 -50 12
-30 13 23 1 23 46 -1 63 -10 7 -22 25 -26 41 -10 41 -57 89 -76 78z m68 -276
c-1 -20 -4 -31 -8 -25 -7 11 -2 60 6 60 2 0 3 -16 2 -35z m-38 -102 c0 -41
-16 -61 -23 -31 -11 38 -8 58 8 58 10 0 15 -10 15 -27z m360 -463 c0 -5 -2
-10 -4 -10 -3 0 -8 5 -11 10 -3 6 -1 10 4 10 6 0 11 -4 11 -10z m-610 -269 c0
-6 -4 -13 -10 -16 -5 -3 -10 1 -10 9 0 9 5 16 10 16 6 0 10 -4 10 -9z m-36
-57 c4 -10 1 -14 -6 -12 -15 5 -23 28 -10 28 5 0 13 -7 16 -16z m-473 -517
c-10 -9 -11 -8 -5 6 3 10 9 15 12 12 3 -3 0 -11 -7 -18z m202 -52 c15 -19 25
-35 22 -35 -8 0 -65 56 -65 64 0 15 17 3 43 -29z m-213 -25 c0 -5 -2 -10 -4
-10 -3 0 -8 5 -11 10 -3 6 -1 10 4 10 6 0 11 -4 11 -10z m-20 -241 c0 -6 -4
-7 -10 -4 -5 3 -10 11 -10 16 0 6 5 7 10 4 6 -3 10 -11 10 -16z m35 -37 c-3
-3 -11 0 -18 7 -9 10 -8 11 6 5 10 -3 15 -9 12 -12z m475 8 c0 -5 -5 -10 -11
-10 -5 0 -7 5 -4 10 3 6 8 10 11 10 2 0 4 -4 4 -10z m-1520 -35 c0 -8 -8 -15
-19 -15 -10 0 -24 7 -31 15 -11 13 -8 15 19 15 21 0 31 -5 31 -15z m-219 -55
c5 0 9 -8 9 -17 -1 -16 -2 -16 -15 1 -8 11 -14 27 -14 35 1 13 2 12 6 -1 2
-10 9 -18 14 -18z m-421 -60 c0 -5 -4 -10 -9 -10 -6 0 -13 5 -16 10 -3 6 1 10
9 10 9 0 16 -4 16 -10z"/>
<path d="M4945 2430 c-8 -13 9 -20 24 -11 10 6 9 10 -3 14 -8 3 -18 2 -21 -3z"/>
<path d="M5610 2345 c-14 -16 -3 -20 19 -6 8 5 9 11 3 15 -5 3 -15 -1 -22 -9z"/>
<path d="M2875 2319 c-10 -15 3 -25 16 -12 7 7 7 13 1 17 -6 3 -14 1 -17 -5z"/>
<path d="M5920 2280 c0 -13 30 -13 50 0 11 7 7 10 -17 10 -18 0 -33 -4 -33
-10z"/>
<path d="M2525 2270 c-3 -5 -1 -10 4 -10 6 0 11 5 11 10 0 6 -2 10 -4 10 -3 0
-8 -4 -11 -10z"/>
<path d="M2498 2219 c-28 -16 -21 -27 21 -39 21 -5 42 -17 45 -25 7 -20 32
-19 40 2 5 12 -3 26 -23 45 -31 29 -54 34 -83 17z"/>
<path d="M5223 2162 c-3 -13 -13 -22 -24 -22 -11 0 -19 -6 -18 -12 1 -18 17
-55 18 -41 1 6 16 11 37 10 19 -1 38 3 42 8 4 6 17 10 30 10 35 0 31 18 -6 26
-18 4 -42 15 -53 25 -19 17 -20 17 -26 -4z"/>
<path d="M3075 2160 c3 -5 11 -10 16 -10 6 0 7 5 4 10 -3 6 -11 10 -16 10 -6
0 -7 -4 -4 -10z"/>
<path d="M5100 2081 c0 -26 16 -35 24 -15 10 25 7 34 -9 34 -8 0 -15 -9 -15
-19z"/>
<path d="M458 2043 c6 -2 18 -2 25 0 6 3 1 5 -13 5 -14 0 -19 -2 -12 -5z"/>
<path d="M4864 2024 c-12 -5 -7 -44 5 -44 14 0 29 23 24 36 -5 14 -10 16 -29
8z"/>
<path d="M6240 1996 c0 -9 5 -16 10 -16 6 0 10 4 10 9 0 6 -4 13 -10 16 -5 3
-10 -1 -10 -9z"/>
<path d="M6240 1934 c0 -8 5 -12 10 -9 6 4 8 11 5 16 -9 14 -15 11 -15 -7z"/>
<path d="M5555 1880 c3 -5 10 -10 16 -10 5 0 9 5 9 10 0 6 -7 10 -16 10 -8 0
-12 -4 -9 -10z"/>
<path d="M17 1846 c-21 -16 -22 -55 -2 -62 19 -8 19 -24 0 -24 -12 0 -15 -20
-15 -119 l0 -119 32 -11 c18 -6 43 -21 56 -33 14 -14 26 -19 30 -12 7 10 79
11 89 0 4 -3 12 -1 20 5 7 6 13 8 13 3 0 -5 7 1 15 13 14 20 75 38 75 22 0 -4
15 -20 34 -34 30 -23 38 -25 57 -14 17 9 24 9 27 0 5 -16 29 -14 36 4 3 8 12
15 20 15 7 0 16 8 19 18 2 11 14 22 26 25 21 5 22 4 7 -18 -24 -36 -20 -42 27
-48 23 -4 51 -7 62 -9 14 -2 21 3 23 20 3 22 -12 30 -23 12 -13 -21 -34 -9
-37 22 -2 24 -11 36 -37 50 -19 11 -44 17 -56 14 -15 -4 -28 1 -40 14 -10 11
-24 20 -32 20 -8 0 -13 11 -13 30 0 31 -22 50 -56 48 -10 -1 -44 6 -74 16 -35
10 -56 13 -58 6 -2 -5 -11 -10 -20 -9 -11 0 -12 3 -5 6 21 8 -5 46 -28 40 -10
-3 -34 -1 -52 4 -17 4 -44 11 -59 14 -35 7 -40 50 -8 60 25 8 26 21 1 35 -25
13 -32 12 -54 -4z m43 -221 c0 -8 -4 -15 -8 -15 -5 0 -9 7 -9 15 0 8 4 15 9
15 4 0 8 -7 8 -15z m304 -30 c10 -13 22 -22 27 -19 5 3 9 0 9 -5 0 -6 -16 -11
-35 -11 -19 0 -35 5 -35 10 0 6 -9 10 -20 10 -25 0 -26 16 -2 29 26 16 36 13
56 -14z"/>
<path d="M5348 1793 c7 -3 16 -2 19 1 4 3 -2 6 -13 5 -11 0 -14 -3 -6 -6z"/>
<path d="M5387 1774 c5 -13 0 -14 -31 -9 -24 5 -36 3 -36 -4 0 -6 7 -11 15
-11 20 0 19 -10 -2 -26 -25 -19 -51 -17 -56 4 -4 16 -5 16 -6 -1 -1 -14 -6
-17 -21 -12 -16 5 -20 2 -20 -14 0 -12 5 -21 10 -21 6 0 10 5 10 10 0 6 5 10
11 10 6 0 1 -16 -10 -36 -12 -20 -21 -37 -19 -38 2 -1 13 -9 24 -19 18 -15 26
-16 47 -6 18 8 30 8 43 0 17 -9 16 -10 -8 -11 -16 0 -28 -4 -28 -10 0 -5 6
-10 14 -10 7 0 29 -3 47 -6 26 -4 31 -3 19 5 -13 10 -13 13 3 22 14 8 15 14 7
24 -7 8 -7 15 -1 19 5 4 12 2 16 -4 10 -16 55 -12 55 5 0 8 -7 15 -17 15 -22
0 -93 32 -93 42 0 4 7 8 15 8 9 0 18 7 21 15 8 19 24 20 24 1 0 -11 9 -13 38
-9 69 11 81 43 15 43 -29 0 -33 3 -24 14 9 11 5 15 -20 20 -45 9 -49 8 -42
-10z"/>
<path d="M6277 1757 c-3 -9 -21 -13 -51 -12 -41 2 -46 -1 -55 -27 -9 -26 -8
-29 27 -47 38 -19 82 -14 82 10 0 7 7 17 16 24 12 8 15 20 10 38 -7 29 -21 35
-29 14z"/>
<path d="M7093 1719 c-2 -23 3 -25 10 -4 4 8 3 16 -1 19 -4 3 -9 -4 -9 -15z"/>
<path d="M5543 1716 c-13 -6 -23 -14 -23 -18 0 -12 28 -10 35 2 3 6 15 10 26
10 11 0 17 5 14 10 -8 12 -23 11 -52 -4z"/>
<path d="M2670 1687 c-14 -6 -27 -14 -30 -17 -3 -4 -14 -10 -25 -15 -19 -8
-19 -8 -1 -13 10 -2 22 2 26 8 5 9 20 10 45 6 34 -7 36 -6 33 15 -4 27 -15 31
-48 16z"/>
<path d="M5628 1683 c7 -3 16 -2 19 1 4 3 -2 6 -13 5 -11 0 -14 -3 -6 -6z"/>
<path d="M5122 1673 c-15 -6 -6 -23 14 -23 8 0 14 7 14 15 0 15 -6 17 -28 8z"/>
<path d="M2828 1610 c-14 -10 -28 -16 -32 -13 -3 3 -6 1 -6 -5 0 -6 -16 -16
-35 -22 -50 -17 -52 -30 -2 -18 23 6 55 13 71 17 21 5 32 14 37 34 9 32 1 34
-33 7z"/>
<path d="M5525 1620 c-3 -5 -1 -10 4 -10 6 0 11 5 11 10 0 6 -2 10 -4 10 -3 0
-8 -4 -11 -10z"/>
<path d="M5570 1600 c0 -5 5 -10 10 -10 6 0 10 5 10 10 0 6 -4 10 -10 10 -5 0
-10 -4 -10 -10z"/>
<path d="M6185 1590 c-3 -5 3 -10 15 -10 12 0 18 5 15 10 -3 6 -10 10 -15 10
-5 0 -12 -4 -15 -10z"/>
<path d="M5036 1582 c-3 -5 1 -9 9 -9 8 0 15 4 15 9 0 4 -4 8 -9 8 -6 0 -12
-4 -15 -8z"/>
<path d="M5434 1563 c2 -16 6 -27 10 -25 3 1 11 2 16 2 6 0 10 11 10 25 0 18
-5 25 -19 25 -15 0 -19 -6 -17 -27z"/>
<path d="M5090 1561 c0 -5 8 -12 18 -14 13 -4 11 -5 -5 -6 -23 -1 -31 -25 -13
-36 16 -10 11 -33 -9 -40 -21 -6 -35 -55 -16 -55 7 0 18 -7 25 -15 6 -8 15
-14 18 -13 4 1 18 -4 31 -11 14 -8 21 -9 17 -2 -14 23 33 10 51 -13 10 -14 32
-28 48 -31 24 -5 26 -4 13 4 -30 20 -83 76 -83 88 0 7 5 17 12 24 9 9 11 7 6
-10 -4 -17 -1 -21 21 -21 18 0 24 4 20 14 -3 8 -1 17 5 21 16 9 13 41 -4 55
-12 10 -18 10 -30 0 -10 -9 -15 -9 -15 -1 0 6 5 11 11 11 5 0 7 5 4 10 -3 6
-13 10 -22 10 -9 0 -21 7 -27 15 -13 16 -76 30 -76 16z"/>
<path d="M5225 1560 c3 -5 10 -10 16 -10 5 0 9 5 9 10 0 6 -7 10 -16 10 -8 0
-12 -4 -9 -10z"/>
<path d="M5040 1525 c0 -14 -4 -25 -10 -25 -5 0 -10 -7 -10 -15 0 -8 9 -15 20
-15 18 0 20 6 18 40 -3 43 -18 56 -18 15z"/>
<path d="M5275 1540 c3 -5 8 -10 11 -10 2 0 4 5 4 10 0 6 -5 10 -11 10 -5 0
-7 -4 -4 -10z"/>
<path d="M4980 1477 c0 -8 9 -22 20 -32 22 -20 27 -7 10 26 -12 22 -30 25 -30
6z"/>
<path d="M0 1415 c0 -59 7 -65 49 -41 21 11 26 10 47 -11 13 -13 35 -23 50
-23 43 0 144 35 144 51 0 17 -125 48 -196 49 -33 0 -56 5 -64 15 -22 27 -30
16 -30 -40z"/>
<path d="M5740 1321 c0 -5 7 -11 14 -14 10 -4 13 -1 9 9 -6 15 -23 19 -23 5z"/>
<path d="M5120 1317 c0 -3 15 -10 32 -16 18 -6 28 -7 23 -2 -12 10 -55 25 -55
18z"/>
<path d="M6983 1270 c0 -18 6 -30 14 -30 7 0 13 8 13 18 0 10 5 23 12 30 9 9
6 12 -13 12 -22 0 -26 -5 -26 -30z"/>
<path d="M5395 1260 c3 -5 15 -10 26 -10 11 0 17 5 14 10 -3 6 -15 10 -26 10
-11 0 -17 -4 -14 -10z"/>
<path d="M5556 1261 c-4 -7 -5 -15 -2 -18 9 -9 19 4 14 18 -4 11 -6 11 -12 0z"/>
<path d="M5640 1245 c0 -8 8 -15 17 -15 9 0 25 -7 35 -17 10 -9 18 -12 18 -6
0 12 -29 38 -52 46 -12 4 -18 1 -18 -8z"/>
<path d="M5588 1226 c-24 -18 -23 -29 2 -14 16 10 25 9 49 -5 32 -19 41 -21
41 -9 0 7 -64 43 -73 42 -1 0 -10 -7 -19 -14z"/>
<path d="M5458 1218 c9 -9 15 -9 24 0 9 9 7 12 -12 12 -19 0 -21 -3 -12 -12z"/>
<path d="M5070 1206 c0 -9 7 -12 20 -9 11 3 17 9 14 14 -8 14 -34 10 -34 -5z"/>
<path d="M6980 1210 c-7 -5 -15 -16 -16 -25 -3 -20 -33 -44 -54 -45 -13 0 -13
-1 0 -10 22 -14 50 -12 50 4 0 8 10 16 21 18 26 4 43 42 26 57 -8 6 -18 6 -27
1z"/>
<path d="M5155 1200 c3 -5 16 -10 28 -10 18 0 19 2 7 10 -20 13 -43 13 -35 0z"/>
<path d="M5512 1198 c5 -15 37 -18 41 -3 1 6 -9 12 -22 13 -16 3 -22 -1 -19
-10z"/>
<path d="M5220 1190 c0 -5 6 -10 14 -10 8 0 18 5 21 10 3 6 -3 10 -14 10 -12
0 -21 -4 -21 -10z"/>
<path d="M5379 1182 c5 -10 22 -24 38 -32 15 -8 31 -19 34 -24 4 -5 12 -5 18
-1 17 10 -5 35 -30 35 -11 0 -28 9 -39 20 -25 25 -34 26 -21 2z"/>
<path d="M0 1112 c0 -71 2 -80 20 -85 33 -8 47 19 27 56 -9 18 -18 47 -19 66
-2 19 -9 36 -15 39 -10 3 -13 -17 -13 -76z"/>
<path d="M5745 1160 c3 -5 8 -10 11 -10 2 0 4 5 4 10 0 6 -5 10 -11 10 -5 0
-7 -4 -4 -10z"/>
<path d="M5219 1149 c-12 -8 -11 -12 5 -24 16 -12 17 -17 6 -30 -10 -12 -10
-15 3 -15 8 0 17 6 20 13 3 8 10 7 23 -7 11 -10 14 -16 7 -12 -6 3 -14 2 -18
-4 -3 -5 3 -10 14 -10 12 0 21 -4 21 -10 0 -5 7 -10 15 -10 9 0 15 9 15 25 0
14 -4 25 -10 25 -5 0 -10 8 -10 17 0 9 -3 13 -7 10 -3 -4 -20 4 -38 17 -22 17
-36 22 -46 15z"/>
<path d="M5270 1150 c0 -5 9 -10 20 -10 11 0 20 5 20 10 0 6 -9 10 -20 10 -11
0 -20 -4 -20 -10z"/>
<path d="M5628 1153 c7 -3 16 -2 19 1 4 3 -2 6 -13 5 -11 0 -14 -3 -6 -6z"/>
<path d="M5330 1115 c0 -15 6 -25 14 -25 9 0 13 10 12 25 -1 33 -26 33 -26 0z"/>
<path d="M5372 1100 c11 -17 10 -22 -2 -30 -13 -9 -13 -10 0 -10 10 -1 8 -5
-6 -13 -21 -12 -21 -35 0 -49 20 -14 31 -8 13 6 -17 13 -17 15 -1 24 10 6 15
16 11 26 -4 9 -2 16 4 16 20 0 49 -21 49 -35 0 -8 7 -15 15 -15 19 0 19 19 0
26 -8 4 -13 9 -11 13 3 4 -9 16 -25 26 -16 11 -29 23 -29 28 0 4 -7 7 -15 7
-13 0 -13 -3 -3 -20z"/>
<path d="M5498 1113 c-10 -2 -18 -9 -18 -14 0 -12 17 -12 25 1 4 6 11 8 16 5
5 -4 9 -1 9 4 0 11 -3 12 -32 4z"/>
<path d="M5552 1074 c-7 -8 -8 -14 -3 -14 10 0 25 19 20 25 -2 1 -10 -3 -17
-11z"/>
<path d="M6070 1067 c0 -9 6 -17 12 -19 7 -3 13 -14 13 -26 0 -12 5 -22 10
-22 6 0 10 17 10 38 0 31 -4 38 -22 40 -15 2 -23 -2 -23 -11z"/>
<path d="M5200 1054 c0 -8 5 -12 10 -9 6 4 8 11 5 16 -9 14 -15 11 -15 -7z"/>
<path d="M5590 1049 c0 -5 5 -7 10 -4 6 3 10 8 10 11 0 2 -4 4 -10 4 -5 0 -10
-5 -10 -11z"/>
<path d="M7338 1038 c-11 -8 -18 -28 -18 -53 -1 -68 12 -144 26 -156 11 -9 14
-8 14 2 1 8 9 -3 20 -25 27 -53 13 -81 -36 -71 -37 7 -47 -12 -19 -35 13 -11
20 -11 39 0 28 15 53 5 36 -15 -6 -7 -8 -20 -4 -29 3 -9 1 -16 -5 -16 -6 0
-11 5 -11 10 0 6 -4 10 -10 10 -13 0 -13 -36 0 -61 7 -13 7 -19 0 -19 -5 0
-10 -5 -10 -10 0 -6 10 -4 23 5 13 8 27 12 30 8 13 -12 7 -23 -13 -23 -11 0
-20 -4 -20 -9 0 -13 25 -20 48 -14 27 7 37 -14 12 -27 -23 -13 -27 -30 -5 -30
17 0 20 -26 4 -36 -6 -3 -9 -17 -7 -29 4 -17 1 -22 -9 -18 -11 4 -12 -1 -8
-20 4 -14 2 -28 -5 -32 -8 -5 -8 -10 0 -20 9 -11 8 -20 -4 -37 -19 -27 -20
-38 -3 -38 7 0 13 -9 13 -20 0 -11 -3 -20 -7 -20 -3 0 -16 -8 -27 -19 l-22
-18 28 -1 c15 0 52 -1 82 -3 30 -1 72 1 93 5 21 5 37 5 36 0 -5 -30 2 -36 38
-32 21 3 49 -1 63 -9 14 -7 32 -10 41 -8 11 4 18 -2 22 -14 9 -37 87 -41 87
-4 0 33 -15 46 -37 34 -16 -8 -24 -7 -37 8 -20 22 -20 31 -1 31 8 0 15 7 15
15 0 8 6 12 15 9 19 -7 33 45 15 56 -6 4 -11 11 -10 15 1 4 -9 13 -22 19 -16
8 -24 22 -26 46 -4 36 -27 61 -49 53 -7 -3 -13 -1 -13 5 0 5 11 13 25 16 16 4
23 11 19 18 -6 9 -9 9 -12 0 -8 -24 -22 -11 -16 15 6 23 4 25 -15 20 -19 -5
-21 -1 -21 32 0 35 -25 120 -45 151 -6 9 -23 24 -38 33 -19 12 -27 24 -23 34
4 9 -1 27 -11 42 -9 14 -22 44 -28 66 -10 32 -17 40 -35 40 -18 0 -26 9 -37
43 -8 23 -20 42 -27 42 -7 0 -19 21 -27 48 -16 50 -39 64 -71 40z m162 -608
c0 -5 -7 -10 -16 -10 -8 0 -12 5 -9 10 3 6 10 10 16 10 5 0 9 -4 9 -10z m-38
-136 c-7 -36 -22 -39 -22 -5 0 22 4 31 13 28 6 -2 10 -13 9 -23z m224 -50 c-3
-9 -6 -24 -6 -35 0 -13 -7 -19 -22 -19 -43 0 -51 14 -24 43 28 30 62 37 52 11z
m-153 -29 c50 -10 29 -26 -33 -24 -41 1 -60 6 -60 15 0 7 8 14 18 16 18 4 28
3 75 -7z m67 5 c0 -5 -2 -10 -4 -10 -3 0 -8 5 -11 10 -3 6 -1 10 4 10 6 0 11
-4 11 -10z"/>
<path d="M4150 1030 c0 -5 5 -10 10 -10 6 0 10 5 10 10 0 6 -4 10 -10 10 -5 0
-10 -4 -10 -10z"/>
<path d="M5137 1023 c-3 -5 -2 -15 2 -22 7 -10 10 -10 16 -1 4 6 3 16 -3 22
-5 5 -12 6 -15 1z"/>
<path d="M5645 1010 c3 -5 14 -10 23 -10 15 0 15 2 2 10 -20 13 -33 13 -25 0z"/>
<path d="M4200 995 c0 -8 5 -15 10 -15 6 0 10 7 10 15 0 8 -4 15 -10 15 -5 0
-10 -7 -10 -15z"/>
<path d="M5815 1000 c3 -5 8 -10 11 -10 2 0 4 5 4 10 0 6 -5 10 -11 10 -5 0
-7 -4 -4 -10z"/>
<path d="M5520 984 c0 -8 5 -12 10 -9 6 4 8 11 5 16 -9 14 -15 11 -15 -7z"/>
<path d="M5271 974 c0 -11 3 -14 6 -6 3 7 2 16 -1 19 -3 4 -6 -2 -5 -13z"/>
<path d="M4380 960 c0 -11 7 -20 15 -20 8 0 15 9 15 20 0 11 -7 20 -15 20 -8
0 -15 -9 -15 -20z"/>
<path d="M5848 973 c6 -2 18 -2 25 0 6 3 1 5 -13 5 -14 0 -19 -2 -12 -5z"/>
<path d="M5930 972 c0 -5 7 -15 15 -22 8 -7 15 -8 15 -2 0 5 -7 15 -15 22 -8
7 -15 8 -15 2z"/>
<path d="M5150 956 c0 -7 9 -16 19 -19 22 -5 54 -66 49 -93 -4 -22 27 -31 47
-14 20 17 20 70 0 70 -16 0 -65 46 -65 61 0 5 -11 9 -25 9 -15 0 -25 -6 -25
-14z"/>
<path d="M5897 963 c-12 -12 -7 -33 7 -33 8 0 13 7 12 15 -3 19 -11 27 -19 18z"/>
<path d="M5334 935 c-9 -22 19 -45 40 -33 17 9 16 11 -3 29 -24 23 -30 24 -37
4z"/>
<path d="M4972 895 c-17 -62 -15 -75 8 -75 17 0 20 -7 20 -44 0 -26 6 -48 15
-56 8 -7 15 -19 15 -26 0 -8 7 -14 15 -14 8 0 15 9 15 20 0 11 -5 20 -11 20
-7 0 -10 19 -7 53 2 46 1 53 -13 50 -12 -4 -18 5 -23 31 -4 20 -4 40 -1 45 6
11 -4 41 -14 41 -4 0 -12 -20 -19 -45z"/>
<path d="M3583 903 c-15 -5 -17 -23 -4 -23 5 0 11 7 15 15 3 8 4 15 3 14 -1 0
-8 -3 -14 -6z"/>
<path d="M5796 885 c-9 -14 -13 -25 -8 -25 10 0 42 33 42 43 0 15 -19 5 -34
-18z"/>
<path d="M3853 875 c-3 -9 -3 -18 0 -21 9 -9 27 6 27 22 0 19 -19 18 -27 -1z"/>
<path d="M4930 870 c0 -5 7 -7 15 -4 8 4 15 8 15 10 0 2 -7 4 -15 4 -8 0 -15
-4 -15 -10z"/>
<path d="M3595 861 c-3 -5 -1 -12 5 -16 5 -3 10 1 10 9 0 18 -6 21 -15 7z"/>
<path d="M5425 860 c-3 -5 -2 -10 4 -10 5 0 13 5 16 10 3 6 2 10 -4 10 -5 0
-13 -4 -16 -10z"/>
<path d="M5810 845 c0 -8 7 -15 16 -15 14 0 14 3 4 15 -7 8 -14 15 -16 15 -2
0 -4 -7 -4 -15z"/>
<path d="M5700 841 c0 -5 5 -13 10 -16 6 -3 10 -2 10 4 0 5 -4 13 -10 16 -5 3
-10 2 -10 -4z"/>
<path d="M4793 830 c-26 -11 -31 -48 -8 -56 8 -4 15 -12 15 -19 0 -8 10 -15
23 -18 20 -3 19 -4 -7 -12 -21 -5 -31 -4 -34 3 -2 7 -10 12 -18 12 -10 0 -12
-5 -5 -17 5 -10 12 -26 15 -35 6 -21 26 -24 26 -4 0 10 10 13 38 9 32 -4 38
-1 47 19 6 12 19 24 31 26 17 2 20 8 16 33 -2 16 1 36 8 44 11 14 8 15 -26 13
-21 -1 -52 1 -69 5 -16 3 -40 2 -52 -3z"/>
<path d="M5120 810 c0 -22 5 -30 18 -30 9 0 26 -7 36 -15 25 -19 46 -19 46 0
0 10 -10 15 -31 15 -26 0 -29 3 -24 21 5 14 2 25 -6 30 -26 16 -39 9 -39 -21z"/>
<path d="M5408 823 c6 -2 18 -2 25 0 6 3 1 5 -13 5 -14 0 -19 -2 -12 -5z"/>
<path d="M4631 794 c0 -11 3 -14 6 -6 3 7 2 16 -1 19 -3 4 -6 -2 -5 -13z"/>
<path d="M5333 771 c1 -17 7 -31 12 -31 14 0 11 53 -3 58 -7 2 -10 -8 -9 -27z"/>
<path d="M7340 790 c0 -5 5 -10 10 -10 6 0 10 5 10 10 0 6 -4 10 -10 10 -5 0
-10 -4 -10 -10z"/>
<path d="M5780 755 c0 -8 7 -15 16 -15 14 0 14 3 4 15 -7 8 -14 15 -16 15 -2
0 -4 -7 -4 -15z"/>
<path d="M5766 729 c4 -25 1 -40 -10 -51 -12 -13 -13 -17 -2 -21 7 -3 18 -2
23 1 14 9 10 61 -5 87 -9 17 -10 14 -6 -16z"/>
<path d="M0 624 l0 -123 53 -10 c63 -13 129 -21 218 -28 l67 -5 21 70 c35 117
26 153 -42 158 -35 2 -94 13 -229 42 l-88 19 0 -123z"/>
<path d="M5116 742 c-2 -4 -1 -14 4 -22 7 -11 12 -12 21 -3 6 6 8 16 5 22 -8
13 -23 14 -30 3z"/>
<path d="M4640 732 c0 -7 -7 -12 -16 -12 -13 0 -14 -3 -5 -13 6 -8 8 -16 5
-19 -3 -3 -1 -9 5 -12 10 -7 27 52 17 61 -3 4 -6 1 -6 -5z"/>
<path d="M5745 700 c3 -5 8 -10 11 -10 2 0 4 5 4 10 0 6 -5 10 -11 10 -5 0 -7
-4 -4 -10z"/>
<path d="M4681 671 c-10 -17 -9 -21 3 -21 20 0 31 19 18 32 -7 7 -14 3 -21
-11z"/>
<path d="M4608 653 c7 -3 16 -2 19 1 4 3 -2 6 -13 5 -11 0 -14 -3 -6 -6z"/>
<path d="M4833 653 c4 -3 2 -12 -4 -20 -9 -10 -5 -13 22 -13 30 1 32 2 17 14
-10 7 -15 16 -11 19 3 4 -2 7 -12 7 -10 0 -15 -3 -12 -7z"/>
<path d="M4775 641 c-6 -11 9 -23 19 -14 9 9 7 23 -3 23 -6 0 -12 -4 -16 -9z"/>
<path d="M5085 619 c-10 -15 3 -25 16 -12 7 7 7 13 1 17 -6 3 -14 1 -17 -5z"/>
<path d="M5490 586 c0 -2 7 -9 15 -16 12 -10 15 -10 15 4 0 9 -7 16 -15 16 -8
0 -15 -2 -15 -4z"/>
<path d="M4720 430 c0 -5 5 -10 11 -10 5 0 7 5 4 10 -3 6 -8 10 -11 10 -2 0
-4 -4 -4 -10z"/>
<path d="M4450 365 c0 -8 7 -15 15 -15 8 0 15 7 15 15 0 8 -7 15 -15 15 -8 0
-15 -7 -15 -15z"/>
<path d="M7798 313 c7 -3 16 -2 19 1 4 3 -2 6 -13 5 -11 0 -14 -3 -6 -6z"/>
<path d="M7470 140 c-11 -7 -2 -10 33 -10 26 0 47 5 47 10 0 13 -60 13 -80 0z"/>
<path d="M7578 123 c7 -3 16 -2 19 1 4 3 -2 6 -13 5 -11 0 -14 -3 -6 -6z"/>
<path d="M7478 93 c7 -3 16 -2 19 1 4 3 -2 6 -13 5 -11 0 -14 -3 -6 -6z"/>
<path d="M4180 40 c0 -5 9 -10 20 -10 11 0 20 5 20 10 0 6 -9 10 -20 10 -11 0
-20 -4 -20 -10z"/>
<path d="M7798 43 c7 -3 16 -2 19 1 4 3 -2 6 -13 5 -11 0 -14 -3 -6 -6z"/>
<path d="M7980 10 c0 -5 5 -10 10 -10 6 0 10 5 10 10 0 6 -4 10 -10 10 -5 0
-10 -4 -10 -10z"/>
</g>
</svg>
