<svg id="svg" version="1.1" xmlns="http://www.w3.org/2000/svg" xmlns:xlink="http://www.w3.org/1999/xlink" width="400" height="249.44178628389156" viewBox="0, 0, 400,249.44178628389156"><g id="svgg"><path id="path0" d="M191.516 57.273 C 190.830 57.450,189.854 57.605,189.347 57.618 C 188.841 57.631,188.357 57.754,188.272 57.891 C 188.187 58.029,187.626 58.141,187.024 58.141 C 186.423 58.141,185.868 58.244,185.790 58.369 C 185.713 58.494,185.201 58.672,184.654 58.765 C 184.106 58.857,183.595 59.036,183.517 59.161 C 183.440 59.286,183.124 59.389,182.815 59.389 C 182.506 59.389,182.036 59.554,181.769 59.755 C 181.503 59.957,181.004 60.133,180.661 60.148 C 180.318 60.162,179.701 60.389,179.289 60.652 C 178.877 60.915,178.372 61.196,178.166 61.277 C 177.960 61.358,177.494 61.584,177.129 61.779 C 176.765 61.974,176.288 62.133,176.069 62.133 C 175.850 62.133,175.669 62.218,175.668 62.321 C 175.666 62.424,175.189 62.731,174.607 63.003 C 174.026 63.275,173.493 63.558,173.425 63.631 C 173.356 63.704,172.233 64.476,170.930 65.346 C 167.528 67.618,159.201 75.219,159.201 76.053 C 159.201 76.197,171.837 88.940,187.281 104.369 C 205.625 122.695,215.313 132.544,215.222 132.773 C 215.076 133.143,210.460 135.518,209.916 135.504 C 209.608 135.496,209.325 135.611,208.167 136.211 C 207.855 136.373,207.069 136.574,206.420 136.659 C 205.771 136.743,205.125 136.902,204.984 137.012 C 204.047 137.741,194.232 137.721,192.040 136.986 C 191.642 136.853,191.014 136.744,190.644 136.744 C 189.625 136.744,183.364 134.344,182.907 133.779 C 182.838 133.694,182.333 133.417,181.784 133.163 C 176.856 130.887,167.758 120.019,167.677 116.311 C 167.672 116.089,167.507 115.627,167.311 115.284 C 167.115 114.941,166.951 114.355,166.946 113.983 C 166.941 113.575,166.745 113.202,166.454 113.047 C 165.806 112.700,151.055 112.693,150.841 113.040 C 150.688 113.287,150.778 113.679,151.564 116.191 C 151.785 116.895,151.969 117.681,151.973 117.937 C 151.983 118.503,152.672 120.478,153.415 122.070 C 153.715 122.714,153.961 123.339,153.961 123.458 C 153.961 123.577,154.242 124.256,154.585 124.968 C 154.928 125.679,155.209 126.319,155.209 126.390 C 155.209 126.460,155.770 127.414,156.457 128.509 C 157.143 129.604,157.704 130.558,157.704 130.630 C 157.704 130.766,159.705 133.781,159.940 133.999 C 160.287 134.321,162.174 136.503,163.069 137.618 C 163.618 138.302,164.379 139.143,164.760 139.487 C 165.141 139.831,165.939 140.561,166.534 141.110 C 167.129 141.659,167.783 142.221,167.987 142.358 C 168.717 142.847,170.567 144.244,171.295 144.856 C 171.702 145.198,172.121 145.477,172.226 145.477 C 172.390 145.477,173.786 146.289,175.552 147.413 C 175.823 147.585,176.213 147.792,176.419 147.871 C 176.791 148.016,179.196 149.099,179.913 149.445 C 180.119 149.545,181.466 149.996,182.907 150.449 C 184.348 150.902,185.722 151.372,185.960 151.494 C 186.199 151.616,186.680 151.716,187.029 151.716 C 187.378 151.716,188.067 151.884,188.560 152.090 C 189.053 152.296,189.863 152.467,190.361 152.470 C 190.859 152.473,191.716 152.586,192.265 152.721 C 193.621 153.054,203.627 153.054,203.960 152.721 C 204.102 152.580,204.728 152.464,205.352 152.465 C 206.554 152.465,209.685 151.836,210.415 151.447 C 210.653 151.320,211.158 151.216,211.537 151.215 C 211.917 151.214,212.549 151.046,212.942 150.841 C 213.335 150.636,213.896 150.464,214.189 150.460 C 214.483 150.456,214.940 150.287,215.207 150.086 C 215.473 149.884,215.866 149.719,216.080 149.719 C 216.802 149.719,222.688 146.610,225.295 144.852 C 226.719 143.892,228.059 142.994,228.273 142.857 C 228.934 142.434,231.500 140.009,234.742 136.744 L 237.839 133.624 209.749 105.662 C 180.711 76.756,180.891 76.948,182.346 76.394 C 182.723 76.250,183.425 75.913,183.905 75.645 C 185.426 74.796,187.644 73.862,188.139 73.862 C 188.402 73.862,188.678 73.762,188.753 73.641 C 188.828 73.519,189.413 73.342,190.052 73.246 C 190.692 73.150,191.395 72.977,191.615 72.862 C 193.526 71.861,202.453 72.006,206.737 73.108 C 208.021 73.438,208.195 73.497,210.106 74.236 C 211.671 74.842,215.686 76.812,216.250 77.251 C 216.508 77.451,217.740 78.393,218.989 79.343 C 220.237 80.293,221.616 81.497,222.052 82.020 C 223.324 83.544,224.679 85.124,225.016 85.477 C 225.187 85.656,225.328 85.885,225.328 85.985 C 225.328 86.085,225.608 86.534,225.951 86.984 C 226.704 87.971,228.950 92.293,229.136 93.113 C 229.265 93.680,229.616 94.703,230.173 96.132 L 230.440 96.818 238.239 96.818 L 246.039 96.818 246.039 96.085 C 246.039 95.681,245.926 95.281,245.789 95.197 C 245.652 95.112,245.536 94.628,245.531 94.121 C 245.526 93.615,245.361 92.920,245.165 92.576 C 244.969 92.233,244.805 91.657,244.800 91.295 C 244.795 90.933,244.623 90.316,244.418 89.922 C 244.213 89.529,244.045 89.018,244.044 88.786 C 244.043 88.554,243.930 88.294,243.793 88.210 C 243.656 88.125,243.543 87.867,243.543 87.637 C 243.543 87.407,243.242 86.600,242.874 85.843 C 242.505 85.086,242.028 84.076,241.813 83.599 C 241.598 83.122,241.057 82.144,240.611 81.427 C 240.165 80.710,239.800 80.068,239.800 80.000 C 239.800 79.799,238.276 77.565,237.382 76.456 C 236.928 75.893,236.556 75.360,236.556 75.271 C 236.556 75.114,234.195 72.507,232.684 70.996 C 230.751 69.063,228.495 67.082,227.540 66.479 C 226.962 66.114,226.368 65.716,226.220 65.594 C 225.191 64.743,223.980 63.880,223.816 63.880 C 223.708 63.880,222.715 63.319,221.609 62.633 C 220.502 61.946,219.456 61.385,219.284 61.385 C 219.112 61.385,218.409 61.117,217.720 60.790 C 217.032 60.463,215.964 60.001,215.346 59.762 C 214.729 59.524,213.999 59.240,213.724 59.131 C 213.450 59.022,212.383 58.742,211.354 58.508 C 210.324 58.275,209.224 57.984,208.909 57.863 C 208.594 57.741,207.976 57.641,207.537 57.639 C 207.097 57.637,206.120 57.470,205.365 57.268 C 203.572 56.786,193.394 56.791,191.516 57.273 " stroke="none" fill="#45cbcb" fill-rule="evenodd"></path><path id="path1" d="M213.350 167.117 C 211.119 167.844,209.357 168.961,209.357 169.648 C 209.357 169.804,209.256 169.931,209.131 169.931 C 208.822 169.931,208.168 172.235,207.979 173.987 C 207.803 175.614,207.479 175.920,205.930 175.920 C 204.520 175.920,204.367 176.204,204.367 178.809 C 204.367 181.480,204.449 181.598,206.371 181.707 L 207.735 181.784 207.801 190.705 L 207.867 199.626 211.354 199.626 L 214.841 199.626 214.906 190.705 L 214.972 181.784 217.405 181.713 L 219.838 181.641 219.838 178.781 L 219.838 175.920 217.642 175.920 C 216.267 175.920,215.334 175.808,215.147 175.621 C 214.546 175.020,214.993 173.128,215.817 172.786 C 216.926 172.326,217.886 172.251,218.772 172.558 C 219.755 172.898,220.586 172.551,220.586 171.801 C 220.586 171.637,220.867 170.975,221.210 170.330 C 222.361 168.165,222.074 167.805,218.590 167.043 C 216.604 166.608,214.834 166.633,213.350 167.117 M88.210 167.219 C 86.762 167.443,86.474 167.538,84.597 168.407 C 81.845 169.680,79.850 172.838,79.850 175.921 C 79.850 179.973,81.801 182.708,85.974 184.508 C 86.517 184.742,87.280 185.095,87.668 185.293 C 88.057 185.490,88.536 185.652,88.732 185.652 C 89.093 185.652,89.279 185.727,90.788 186.483 C 91.245 186.712,91.724 186.900,91.853 186.900 C 92.383 186.900,94.125 188.220,94.581 188.967 C 96.332 191.839,93.101 194.801,89.318 193.793 C 87.310 193.258,86.448 192.737,85.418 191.437 C 84.908 190.794,84.413 190.173,84.317 190.056 C 84.130 189.829,82.346 190.379,82.346 190.664 C 82.346 190.757,82.149 190.899,81.909 190.978 C 81.168 191.221,79.277 192.355,79.080 192.674 C 78.290 193.952,84.162 199.610,86.299 199.629 C 86.526 199.632,87.162 199.795,87.711 199.993 C 89.430 200.612,93.724 200.330,95.422 199.487 C 95.820 199.289,96.260 199.127,96.398 199.127 C 96.537 199.127,97.221 198.764,97.920 198.321 C 103.005 195.096,103.952 188.773,99.950 184.765 C 98.689 183.503,96.407 181.909,95.861 181.909 C 95.701 181.909,95.571 181.825,95.571 181.722 C 95.571 181.619,94.891 181.317,94.060 181.052 C 93.229 180.786,92.492 180.477,92.423 180.366 C 92.354 180.254,92.108 180.162,91.875 180.161 C 91.643 180.160,91.132 179.991,90.739 179.786 C 90.346 179.581,89.858 179.414,89.656 179.414 C 88.879 179.414,87.338 178.050,87.046 177.105 C 85.806 173.079,91.646 171.749,95.058 175.280 C 96.245 176.508,96.715 176.417,99.875 174.349 C 101.533 173.263,101.501 173.347,100.680 172.272 C 99.158 170.277,96.279 167.935,95.347 167.935 C 95.074 167.935,94.786 167.829,94.706 167.700 C 94.413 167.225,90.189 166.913,88.210 167.219 M189.549 170.569 C 189.464 170.790,189.395 172.015,189.395 173.291 C 189.395 175.878,189.371 175.909,187.386 175.917 C 186.060 175.922,185.901 176.232,185.901 178.809 C 185.901 181.480,185.983 181.598,187.905 181.707 L 189.270 181.784 189.426 188.022 C 189.692 198.706,191.139 200.479,198.994 199.743 C 201.559 199.503,201.622 199.419,201.622 196.242 L 201.622 193.643 199.807 193.797 C 198.087 193.942,197.951 193.915,197.183 193.268 L 196.372 192.586 196.439 187.185 L 196.507 181.784 198.913 181.713 C 201.716 181.630,201.613 181.748,201.619 178.623 C 201.623 175.849,201.689 175.921,199.162 175.916 C 196.326 175.911,196.413 176.004,196.329 172.917 L 196.257 170.306 192.980 170.236 C 190.157 170.176,189.682 170.222,189.549 170.569 M146.974 175.623 C 146.220 175.665,145.495 175.805,145.365 175.934 C 145.235 176.064,144.898 176.170,144.616 176.171 C 143.339 176.173,138.061 179.663,138.007 180.541 C 137.998 180.681,137.716 181.200,137.380 181.694 C 137.044 182.189,136.692 182.917,136.597 183.312 C 136.503 183.707,136.315 184.170,136.180 184.341 C 135.849 184.761,135.865 190.925,136.199 191.533 C 136.344 191.798,136.775 192.689,137.157 193.512 C 137.945 195.209,139.718 197.248,140.849 197.759 C 141.267 197.947,141.890 198.270,142.233 198.477 C 144.949 200.111,150.644 200.613,152.339 199.368 C 152.477 199.267,152.954 199.106,153.400 199.011 C 153.846 198.915,154.211 198.747,154.211 198.637 C 154.211 198.527,154.407 198.370,154.648 198.290 C 156.086 197.807,158.649 195.213,159.490 193.387 C 162.358 187.169,160.097 180.011,154.376 177.196 C 151.456 175.759,150.013 175.453,146.974 175.623 M117.135 176.012 C 116.712 176.167,115.949 176.613,115.439 177.003 C 114.369 177.819,113.856 177.741,113.742 176.746 L 113.662 176.045 110.578 175.975 C 108.517 175.928,107.379 176.000,107.147 176.192 C 106.857 176.433,106.800 179.112,106.800 192.415 L 106.800 208.350 107.361 208.489 C 107.670 208.566,109.214 208.596,110.792 208.557 L 113.662 208.484 113.787 203.247 C 113.924 197.485,113.988 197.290,115.353 198.472 C 116.827 199.748,119.618 200.332,122.180 199.902 C 136.372 197.517,134.642 175.546,120.274 175.704 C 118.971 175.718,117.558 175.857,117.135 176.012 M177.729 176.025 C 177.283 176.187,176.783 176.454,176.619 176.619 C 176.454 176.784,176.185 176.918,176.021 176.918 C 175.629 176.918,174.314 178.428,173.370 179.963 C 172.418 181.510,172.329 181.398,172.177 178.458 L 172.052 176.045 168.746 175.975 L 165.440 175.906 165.440 187.766 L 165.440 199.626 168.808 199.626 L 172.177 199.626 172.180 194.573 C 172.183 189.439,172.343 188.251,173.277 186.445 C 173.751 185.529,176.154 183.157,176.609 183.157 C 176.789 183.157,177.185 182.994,177.489 182.795 C 177.822 182.576,178.831 182.403,180.037 182.358 C 182.500 182.266,182.400 182.420,182.404 178.727 L 182.408 175.671 180.474 175.700 C 179.410 175.717,178.175 175.863,177.729 176.025 M233.679 176.375 C 230.794 177.656,229.195 178.883,227.608 181.036 C 225.826 183.451,225.078 189.716,226.290 192.068 C 226.416 192.313,226.729 192.954,226.984 193.492 C 231.433 202.861,246.416 201.782,250.053 191.831 C 250.569 190.418,250.759 184.825,250.300 184.541 C 250.173 184.463,249.990 184.035,249.893 183.590 C 249.558 182.062,247.782 179.661,245.839 178.110 C 242.809 175.692,237.063 174.872,233.679 176.375 M266.875 176.407 C 265.240 177.189,264.633 177.779,263.450 179.741 C 262.452 181.397,262.519 181.332,262.249 180.904 C 262.121 180.702,262.015 179.498,262.013 178.228 L 262.009 175.920 258.640 175.920 L 255.271 175.920 255.271 187.773 L 255.271 199.626 258.640 199.626 L 262.009 199.626 262.007 194.697 C 262.005 185.987,264.301 182.489,270.121 182.338 L 272.234 182.283 272.237 178.977 L 272.240 175.671 270.306 175.681 C 268.705 175.690,268.114 175.815,266.875 176.407 M288.210 175.907 C 288.004 176.021,287.406 176.324,286.882 176.579 C 286.358 176.834,285.431 177.583,284.822 178.242 C 283.470 179.706,283.219 179.594,283.219 177.527 L 283.219 175.920 279.850 175.920 L 276.482 175.920 276.482 187.773 L 276.482 199.626 279.850 199.626 L 283.219 199.626 283.219 192.903 C 283.219 188.690,283.312 186.123,283.468 186.026 C 283.606 185.941,283.718 185.673,283.718 185.430 C 283.718 182.002,290.284 180.307,292.392 183.191 C 293.587 184.825,293.569 184.696,293.699 192.265 L 293.824 199.501 297.318 199.501 L 300.811 199.501 300.936 192.367 L 301.061 185.234 301.775 184.203 C 303.018 182.411,304.616 181.585,306.621 181.699 C 310.613 181.924,311.416 183.934,311.416 193.699 L 311.416 199.626 314.792 199.626 L 318.167 199.626 318.086 191.828 C 317.998 183.361,317.936 182.868,316.594 179.993 C 316.126 178.990,314.168 177.106,313.038 176.570 C 312.489 176.309,311.845 176.000,311.607 175.883 C 311.368 175.766,310.021 175.671,308.612 175.672 C 304.931 175.673,302.782 176.771,300.120 180.012 L 299.525 180.735 298.943 179.917 C 296.610 176.641,290.802 174.471,288.210 175.907 M121.848 182.155 C 124.805 183.555,126.229 187.878,124.634 190.611 C 124.363 191.074,124.040 191.644,123.915 191.876 C 122.400 194.701,116.499 194.571,114.685 191.673 C 113.712 190.116,113.126 186.435,113.787 186.026 C 113.924 185.941,114.036 185.591,114.036 185.247 C 114.036 184.482,116.409 182.009,117.304 181.841 C 118.884 181.543,120.840 181.678,121.848 182.155 M151.675 182.753 C 155.985 185.917,154.159 193.160,148.838 194.002 C 147.658 194.189,144.589 193.030,144.154 192.233 C 144.013 191.976,143.832 191.709,143.752 191.641 C 142.894 190.908,142.407 188.752,142.644 186.736 C 143.159 182.354,148.140 180.157,151.675 182.753 M240.625 182.138 C 246.923 185.020,243.371 195.749,236.780 193.754 C 235.971 193.509,235.309 193.214,235.309 193.098 C 235.309 192.983,235.150 192.888,234.957 192.888 C 234.654 192.888,234.340 192.571,233.103 191.012 C 232.992 190.872,232.761 190.047,232.591 189.180 C 231.587 184.079,236.142 180.087,240.625 182.138 " stroke="none" fill="#171717" fill-rule="evenodd"></path><path id="path2" d="M0.000 124.766 L 0.000 249.532 200.000 249.532 L 400.000 249.532 400.000 124.766 L 400.000 0.000 200.000 0.000 L 0.000 0.000 0.000 124.766 M202.946 56.646 C 204.620 56.772,206.213 56.929,206.488 56.994 C 206.762 57.059,208.110 57.355,209.482 57.652 C 212.064 58.210,215.543 59.295,215.958 59.672 C 216.088 59.791,216.367 59.888,216.578 59.888 C 216.789 59.888,217.524 60.159,218.212 60.489 C 218.900 60.820,219.632 61.154,219.838 61.230 C 220.044 61.306,220.774 61.705,221.460 62.115 C 222.146 62.525,223.245 63.132,223.901 63.463 C 224.558 63.794,225.481 64.416,225.953 64.846 C 226.425 65.276,226.877 65.627,226.956 65.627 C 227.804 65.627,235.202 72.535,236.443 74.485 C 236.705 74.897,236.988 75.290,237.071 75.359 C 240.191 77.920,245.983 91.086,246.126 95.945 L 246.163 97.193 238.225 97.193 L 230.287 97.193 229.958 96.569 C 229.778 96.226,229.431 95.328,229.189 94.573 C 228.946 93.818,228.405 92.470,227.986 91.578 C 227.568 90.686,227.164 89.788,227.088 89.582 C 226.255 87.327,221.089 81.395,217.592 78.678 C 214.850 76.547,210.014 74.358,205.490 73.198 C 202.956 72.549,194.281 72.552,191.765 73.203 C 188.967 73.926,184.951 75.316,184.371 75.761 C 184.183 75.904,183.609 76.215,183.094 76.451 C 182.580 76.686,182.158 77.031,182.158 77.216 C 182.158 77.402,187.832 83.207,194.765 90.118 C 228.790 124.028,238.053 133.333,238.044 133.592 C 238.035 133.895,232.676 139.473,230.817 141.116 C 229.211 142.535,227.975 143.557,227.426 143.920 C 227.164 144.093,225.995 144.870,224.828 145.647 C 223.662 146.423,221.585 147.606,220.212 148.274 C 218.840 148.942,217.522 149.597,217.283 149.729 C 217.045 149.861,216.652 149.972,216.410 149.977 C 216.168 149.981,215.752 150.150,215.486 150.351 C 215.219 150.553,214.749 150.717,214.440 150.717 C 214.131 150.717,213.820 150.812,213.749 150.927 C 213.677 151.043,212.744 151.333,211.675 151.571 C 210.606 151.810,209.507 152.111,209.233 152.240 C 206.326 153.605,190.214 153.588,187.651 152.216 C 187.393 152.078,186.958 151.965,186.684 151.965 C 186.003 151.965,180.355 150.099,178.665 149.316 C 177.910 148.966,177.012 148.552,176.669 148.395 C 176.326 148.238,175.166 147.573,174.091 146.918 C 173.017 146.263,172.052 145.727,171.948 145.727 C 171.280 145.727,164.394 139.894,163.093 138.226 C 162.831 137.891,162.214 137.162,161.720 136.605 C 159.781 134.418,159.334 133.858,158.368 132.403 C 156.586 129.721,153.712 124.499,153.712 123.945 C 153.712 123.820,153.543 123.337,153.337 122.870 C 152.513 121.001,152.260 120.360,151.994 119.464 C 150.934 115.899,150.418 113.645,150.512 112.985 L 150.593 112.414 158.429 112.348 C 166.766 112.278,167.187 112.334,167.187 113.505 C 167.187 113.719,167.367 114.404,167.587 115.026 C 171.483 126.025,181.029 134.668,191.283 136.481 C 192.097 136.624,193.381 136.867,194.136 137.020 C 199.492 138.102,213.186 135.238,214.749 132.708 C 214.832 132.573,202.256 119.829,186.801 104.388 C 171.347 88.946,158.702 76.187,158.702 76.033 C 158.702 75.708,164.612 69.817,166.812 67.948 C 169.094 66.011,174.108 62.655,175.870 61.887 C 176.186 61.750,177.252 61.260,178.241 60.799 C 180.134 59.915,182.007 59.168,183.956 58.520 C 186.064 57.818,192.101 56.644,193.698 56.625 C 194.556 56.615,195.764 56.512,196.382 56.395 C 196.999 56.279,198.044 56.236,198.704 56.300 C 199.364 56.363,201.273 56.519,202.946 56.646 M220.337 166.845 C 222.896 167.918,222.944 168.082,221.521 170.930 L 220.462 173.051 218.964 173.079 C 215.854 173.139,215.970 173.107,215.646 174.004 C 215.145 175.388,215.159 175.398,217.779 175.474 L 220.212 175.546 220.283 178.505 C 220.372 182.234,220.430 182.158,217.440 182.158 L 215.103 182.158 215.037 191.079 L 214.972 200.000 211.388 200.069 C 206.624 200.162,207.112 201.212,207.112 190.862 L 207.112 182.158 205.789 182.158 C 203.969 182.158,203.867 181.994,203.871 179.052 C 203.876 175.425,203.878 175.421,205.612 175.421 C 207.177 175.421,207.361 175.183,207.361 173.159 C 207.361 172.772,207.473 172.387,207.611 172.302 C 207.748 172.217,207.860 171.871,207.860 171.534 C 207.860 170.555,210.012 167.686,210.746 167.686 C 210.825 167.686,211.059 167.517,211.265 167.311 C 211.470 167.105,211.889 166.937,212.195 166.937 C 212.501 166.937,212.858 166.831,212.988 166.702 C 213.534 166.163,218.959 166.268,220.337 166.845 M93.557 166.722 C 96.496 167.661,99.051 169.248,100.329 170.930 C 100.798 171.547,101.239 172.109,101.308 172.177 C 102.072 172.931,101.818 174.423,100.927 174.423 C 100.504 174.423,99.068 175.241,99.066 175.483 C 99.065 175.586,98.896 175.671,98.690 175.671 C 98.484 175.671,98.316 175.761,98.316 175.872 C 98.316 176.123,96.395 176.987,96.085 176.876 C 95.959 176.830,95.315 176.282,94.653 175.656 C 93.318 174.395,91.781 173.674,90.426 173.674 C 86.860 173.674,86.433 177.615,89.861 178.891 C 90.325 179.064,90.877 179.294,91.087 179.403 C 91.298 179.511,91.831 179.679,92.273 179.776 C 92.714 179.873,93.075 180.056,93.075 180.182 C 93.075 180.308,93.333 180.412,93.649 180.412 C 94.366 180.412,97.279 181.889,98.553 182.898 C 99.080 183.315,99.625 183.656,99.765 183.656 C 101.478 183.656,104.010 192.365,102.558 193.263 C 102.420 193.347,102.307 193.663,102.307 193.964 C 102.304 194.924,99.695 198.093,98.440 198.659 C 98.166 198.783,97.604 199.099,97.193 199.362 C 96.781 199.624,96.228 199.847,95.965 199.857 C 95.701 199.867,95.290 200.052,95.050 200.269 C 94.392 200.865,87.903 200.852,86.338 200.252 C 83.427 199.134,82.786 198.732,80.861 196.814 C 78.289 194.251,77.827 192.432,79.538 191.596 C 80.190 191.277,80.761 190.933,80.807 190.830 C 80.853 190.727,80.995 190.643,81.124 190.643 C 81.252 190.643,81.802 190.362,82.346 190.019 C 83.621 189.214,84.744 189.187,84.977 189.956 C 85.182 190.631,87.221 192.639,87.702 192.639 C 87.890 192.639,88.085 192.765,88.136 192.918 C 88.282 193.354,92.681 193.309,93.169 192.867 C 93.382 192.673,93.730 192.369,93.940 192.192 C 95.293 191.055,93.097 187.149,91.104 187.149 C 90.985 187.149,90.565 186.981,90.172 186.776 C 89.779 186.571,89.267 186.403,89.035 186.402 C 88.803 186.401,88.544 186.288,88.459 186.151 C 88.374 186.014,88.115 185.898,87.883 185.894 C 87.651 185.889,86.900 185.610,86.213 185.272 C 85.527 184.935,84.822 184.657,84.646 184.656 C 84.470 184.655,84.262 184.485,84.183 184.279 C 84.104 184.074,83.883 183.905,83.691 183.905 C 83.500 183.905,83.344 183.793,83.344 183.656 C 83.344 183.518,83.208 183.406,83.042 183.406 C 82.704 183.406,80.848 181.671,80.848 181.354 C 80.848 181.242,80.587 180.732,80.266 180.220 C 79.520 179.026,78.925 175.719,79.322 174.976 C 79.475 174.690,79.601 174.121,79.601 173.711 C 79.601 172.963,80.312 171.433,80.661 171.430 C 80.764 171.429,80.848 171.311,80.848 171.168 C 80.848 170.842,82.597 168.933,82.896 168.933 C 83.017 168.933,83.419 168.653,83.789 168.309 C 84.159 167.966,84.631 167.682,84.838 167.678 C 85.046 167.673,85.433 167.505,85.700 167.303 C 85.966 167.102,86.549 166.937,86.995 166.937 C 87.441 166.937,87.875 166.825,87.960 166.687 C 88.172 166.345,92.459 166.372,93.557 166.722 M196.827 172.486 C 196.909 175.589,196.686 175.379,200.000 175.483 L 201.996 175.546 202.066 178.452 C 202.156 182.154,202.152 182.158,199.109 182.158 L 196.881 182.158 196.882 186.712 C 196.883 189.217,197.001 191.687,197.144 192.202 L 197.403 193.138 199.588 193.138 C 202.380 193.138,202.371 193.127,202.371 196.323 C 202.371 199.262,202.162 199.875,201.164 199.875 C 200.785 199.875,200.354 199.995,200.208 200.141 C 198.381 201.969,189.894 199.305,189.894 196.904 C 189.894 196.750,189.789 196.430,189.661 196.191 C 189.087 195.123,188.896 193.028,188.896 187.787 L 188.896 182.158 187.449 182.158 C 185.470 182.158,185.402 182.047,185.406 178.802 C 185.411 175.472,185.413 175.469,187.280 175.373 L 188.771 175.296 188.837 172.801 C 188.929 169.362,188.533 169.658,192.945 169.738 L 196.756 169.807 196.827 172.486 M122.815 175.254 C 123.595 175.419,124.316 175.636,124.416 175.737 C 124.517 175.838,124.792 175.920,125.027 175.920 C 125.261 175.920,125.593 176.089,125.764 176.294 C 125.935 176.500,126.229 176.669,126.417 176.669 C 127.297 176.669,130.397 179.926,131.167 181.659 C 132.284 184.175,132.316 184.350,132.310 187.786 C 132.304 191.328,132.261 191.532,130.912 194.386 C 129.967 196.384,126.681 199.376,125.430 199.376 C 125.202 199.376,125.016 199.488,125.016 199.626 C 125.016 199.763,124.785 199.875,124.504 199.875 C 124.223 199.875,123.640 200.058,123.209 200.281 C 121.531 201.148,116.586 200.428,115.427 199.147 C 114.367 197.976,114.286 198.303,114.286 203.749 L 114.286 208.871 110.356 208.802 L 106.425 208.734 106.357 192.639 C 106.319 183.787,106.349 176.291,106.424 175.983 C 106.557 175.430,106.623 175.421,110.423 175.421 L 114.286 175.421 114.286 176.030 C 114.286 176.857,114.612 176.997,115.317 176.472 C 117.169 175.092,119.930 174.644,122.815 175.254 M150.669 175.192 C 154.262 176.022,158.006 178.509,159.378 180.978 C 159.624 181.422,159.891 181.840,159.972 181.909 C 160.250 182.147,160.767 183.787,160.994 185.153 C 161.455 187.934,161.501 188.693,161.225 188.969 C 161.073 189.121,160.948 189.714,160.948 190.288 C 160.948 191.618,159.934 194.282,159.264 194.710 C 159.093 194.820,158.952 195.048,158.952 195.218 C 158.952 195.648,156.766 197.712,155.708 198.282 C 155.228 198.541,154.779 198.820,154.710 198.903 C 154.583 199.055,153.540 199.522,151.965 200.131 C 149.900 200.928,145.522 200.654,143.422 199.595 C 143.184 199.474,142.857 199.376,142.695 199.376 C 142.271 199.376,140.005 197.923,139.027 197.025 C 135.201 193.510,134.013 186.463,136.520 182.158 C 136.640 181.953,136.954 181.391,137.219 180.911 C 137.793 179.866,140.606 177.168,141.121 177.168 C 141.321 177.168,141.485 177.056,141.485 176.918 C 141.485 176.781,141.594 176.669,141.727 176.669 C 141.861 176.669,142.563 176.393,143.287 176.056 C 145.385 175.080,148.570 174.708,150.669 175.192 M182.017 175.165 L 182.658 175.409 182.658 179.033 L 182.658 182.658 180.801 182.658 C 179.780 182.658,178.882 182.757,178.807 182.879 C 178.732 183.000,178.267 183.176,177.775 183.268 C 176.783 183.454,173.674 186.215,173.674 186.910 C 173.674 187.124,173.534 187.439,173.362 187.610 C 173.136 187.836,173.029 189.485,172.971 193.625 C 172.873 200.730,173.274 200.164,168.407 200.069 L 164.816 200.000 164.751 188.198 C 164.708 180.346,164.774 176.232,164.947 175.908 C 165.187 175.460,165.492 175.421,168.767 175.421 C 172.932 175.421,172.926 175.418,172.926 177.592 C 172.926 178.474,173.035 179.164,173.175 179.164 C 173.313 179.164,173.425 179.080,173.425 178.977 C 173.426 178.644,175.299 176.669,175.614 176.669 C 175.783 176.669,175.920 176.559,175.920 176.424 C 175.920 176.289,176.201 176.109,176.544 176.023 C 176.887 175.937,177.168 175.777,177.168 175.667 C 177.168 175.507,178.754 175.219,181.082 174.955 C 181.244 174.937,181.665 175.032,182.017 175.165 M240.844 175.254 C 241.624 175.419,242.344 175.636,242.445 175.737 C 242.546 175.838,242.774 175.920,242.952 175.920 C 244.846 175.920,250.281 181.252,250.281 183.110 C 250.281 183.355,250.390 183.665,250.523 183.798 C 251.248 184.523,251.278 190.744,250.563 192.052 C 250.424 192.306,250.252 192.797,250.181 193.143 C 250.109 193.489,249.822 194.017,249.542 194.318 C 249.262 194.618,249.033 194.956,249.033 195.069 C 249.033 195.862,244.464 199.376,243.433 199.376 C 243.219 199.376,243.044 199.488,243.044 199.626 C 243.044 199.763,242.699 199.875,242.278 199.875 C 241.856 199.875,241.343 200.044,241.137 200.250 C 240.414 200.973,233.313 200.404,233.313 199.623 C 233.313 199.522,232.978 199.372,232.570 199.290 C 231.277 199.032,227.573 196.147,227.573 195.400 C 227.573 195.287,227.415 195.063,227.221 194.902 C 225.761 193.691,224.238 185.951,225.328 185.278 C 225.465 185.193,225.577 184.815,225.577 184.437 C 225.577 184.060,225.742 183.533,225.943 183.267 C 226.145 183.000,226.313 182.530,226.318 182.221 C 226.322 181.912,226.430 181.659,226.558 181.659 C 226.686 181.659,226.870 181.409,226.967 181.104 C 227.192 180.397,230.457 177.168,230.947 177.168 C 231.150 177.168,231.316 177.056,231.316 176.918 C 231.316 176.781,231.414 176.669,231.534 176.669 C 231.654 176.669,232.300 176.418,232.969 176.110 C 235.339 175.023,238.254 174.706,240.844 175.254 M272.527 175.475 C 272.762 175.845,272.814 181.672,272.587 182.263 C 272.470 182.568,272.060 182.658,270.786 182.658 C 267.632 182.658,264.894 184.303,263.501 187.035 C 262.791 188.426,262.690 189.264,262.587 194.627 C 262.516 198.255,262.400 199.789,262.186 199.925 C 261.829 200.152,255.492 200.194,254.917 199.973 C 254.565 199.838,254.523 198.528,254.523 187.751 L 254.523 175.680 255.084 175.541 C 255.393 175.465,257.162 175.434,259.014 175.474 L 262.383 175.546 262.456 177.480 C 262.542 179.763,262.614 179.798,263.840 178.155 C 264.357 177.462,265.027 176.787,265.328 176.654 C 265.630 176.522,266.224 176.202,266.648 175.944 C 268.113 175.054,272.061 174.739,272.527 175.475 M292.312 175.202 C 294.245 175.561,296.109 176.313,296.837 177.029 C 296.984 177.174,297.461 177.573,297.895 177.916 C 298.330 178.260,298.686 178.624,298.688 178.727 C 298.702 179.901,299.586 179.741,300.925 178.323 C 303.990 175.078,308.942 174.107,313.080 175.942 C 315.070 176.824,317.904 180.412,317.904 182.050 C 317.904 182.329,318.044 182.698,318.216 182.869 C 318.720 183.373,318.827 199.420,318.329 199.833 C 318.067 200.051,316.929 200.119,314.376 200.069 L 310.792 200.000 310.658 192.514 C 310.519 184.803,310.500 184.659,309.442 183.342 C 307.965 181.504,304.381 181.844,302.614 183.991 C 301.270 185.623,301.185 186.171,301.185 193.220 L 301.185 199.817 300.624 199.967 C 299.479 200.274,293.774 200.141,293.492 199.801 C 293.318 199.592,293.197 197.011,293.149 192.502 C 293.065 184.495,292.908 183.785,290.983 182.703 C 289.952 182.124,287.383 181.929,287.087 182.408 C 287.002 182.545,286.767 182.658,286.565 182.658 C 286.053 182.658,284.927 183.872,284.404 184.987 C 284.022 185.803,283.968 186.765,283.968 192.763 C 283.968 200.932,284.430 200.168,279.542 200.069 L 276.107 200.000 276.107 187.773 L 276.107 175.546 279.975 175.546 L 283.843 175.546 283.919 176.731 C 284.011 178.162,283.967 178.157,285.436 176.918 C 286.087 176.369,286.787 175.920,286.990 175.920 C 287.194 175.920,287.468 175.815,287.598 175.686 C 287.791 175.495,289.460 175.082,290.565 174.950 C 290.694 174.935,291.480 175.048,292.312 175.202 M117.654 182.408 C 117.570 182.545,117.286 182.658,117.024 182.658 C 116.468 182.658,115.349 183.716,114.714 184.843 C 113.798 186.468,114.402 191.890,115.499 191.890 C 115.589 191.890,115.986 192.189,116.380 192.555 C 117.891 193.956,123.482 193.117,123.513 191.484 C 123.516 191.329,123.675 191.073,123.866 190.914 C 124.973 189.996,124.747 185.737,123.508 184.153 C 122.246 182.539,118.300 181.363,117.654 182.408 M145.575 182.988 C 140.943 186.181,142.977 193.330,148.491 193.234 C 150.600 193.197,152.947 191.680,152.959 190.345 C 152.961 190.113,153.075 189.854,153.213 189.769 C 153.782 189.417,153.499 185.951,152.810 184.836 C 151.114 182.093,148.021 181.303,145.575 182.988 M236.193 182.485 C 235.924 182.649,235.551 182.923,235.364 183.094 C 235.177 183.266,234.890 183.406,234.728 183.406 C 233.600 183.406,232.224 189.998,233.260 190.435 C 233.369 190.480,233.777 190.941,234.166 191.457 C 236.505 194.560,242.228 193.538,242.958 189.888 C 243.041 189.474,243.207 189.075,243.326 189.001 C 244.111 188.515,243.107 184.873,241.840 183.615 C 240.511 182.294,237.498 181.691,236.193 182.485 " stroke="none" fill="#fbfcfc" fill-rule="evenodd"></path><path id="path3" d="M89.083 166.729 C 85.835 167.225,84.186 167.926,82.555 169.506 C 80.070 171.914,79.601 172.933,79.601 175.924 C 79.601 180.992,82.082 183.686,88.958 186.083 C 92.682 187.381,94.073 188.325,94.535 189.867 C 95.799 194.086,88.668 195.017,85.538 191.042 C 84.064 189.169,84.177 189.183,81.847 190.596 C 81.366 190.887,80.490 191.359,79.900 191.644 C 78.472 192.335,78.380 192.715,79.246 194.332 C 80.551 196.767,83.189 198.843,86.538 200.070 C 88.312 200.719,93.868 200.633,95.364 199.932 C 95.958 199.653,96.870 199.231,97.390 198.993 C 102.926 196.464,104.452 189.058,100.370 184.529 C 99.336 183.382,94.732 180.661,93.825 180.661 C 93.697 180.661,93.167 180.477,92.647 180.252 C 92.128 180.027,91.478 179.754,91.204 179.645 C 87.793 178.286,87.535 178.060,87.389 176.304 C 87.111 172.949,91.918 172.532,94.935 175.649 C 96.152 176.907,97.091 176.815,98.834 175.271 C 99.051 175.079,99.306 174.922,99.401 174.922 C 99.890 174.922,101.560 173.609,101.560 173.224 C 101.560 172.559,99.356 170.082,97.726 168.915 C 95.366 167.225,91.778 166.318,89.083 166.729 M212.976 166.888 C 209.322 168.159,207.489 170.848,207.370 175.109 C 207.364 175.314,206.950 175.421,206.161 175.421 C 204.188 175.421,204.089 175.596,204.171 178.918 L 204.242 181.784 205.739 181.909 L 207.236 182.034 207.361 190.892 L 207.486 199.750 211.229 199.750 L 214.972 199.750 215.037 190.839 L 215.103 181.927 217.533 181.856 L 219.963 181.784 219.963 178.665 L 219.963 175.546 217.530 175.474 C 215.281 175.408,215.097 175.365,215.097 174.901 C 215.097 173.249,216.584 172.445,218.738 172.931 C 220.070 173.231,220.292 173.055,221.362 170.843 C 222.711 168.054,222.715 168.067,219.976 166.953 C 218.691 166.430,214.406 166.390,212.976 166.888 M218.590 167.043 C 222.074 167.805,222.361 168.165,221.210 170.330 C 220.867 170.975,220.586 171.637,220.586 171.801 C 220.586 172.551,219.755 172.898,218.772 172.558 C 217.886 172.251,216.926 172.326,215.817 172.786 C 214.993 173.128,214.546 175.020,215.147 175.621 C 215.334 175.808,216.267 175.920,217.642 175.920 L 219.838 175.920 219.838 178.781 L 219.838 181.641 217.405 181.713 L 214.972 181.784 214.906 190.705 L 214.841 199.626 211.354 199.626 L 207.867 199.626 207.801 190.705 L 207.735 181.784 206.371 181.707 C 204.449 181.598,204.367 181.480,204.367 178.809 C 204.367 176.204,204.520 175.920,205.930 175.920 C 207.479 175.920,207.803 175.614,207.979 173.987 C 208.168 172.235,208.822 169.931,209.131 169.931 C 209.256 169.931,209.357 169.804,209.357 169.648 C 209.357 169.271,210.547 168.248,211.478 167.824 C 213.987 166.682,215.955 166.465,218.590 167.043 M93.506 167.335 C 94.086 167.406,94.626 167.571,94.706 167.700 C 94.786 167.829,95.074 167.935,95.347 167.935 C 96.279 167.935,99.158 170.277,100.680 172.272 C 101.501 173.347,101.533 173.263,99.875 174.349 C 96.715 176.417,96.245 176.508,95.058 175.280 C 91.646 171.749,85.806 173.079,87.046 177.105 C 87.338 178.050,88.879 179.414,89.656 179.414 C 89.858 179.414,90.346 179.581,90.739 179.786 C 91.132 179.991,91.643 180.160,91.875 180.161 C 92.108 180.162,92.354 180.254,92.423 180.366 C 92.492 180.477,93.229 180.786,94.060 181.052 C 94.891 181.317,95.571 181.619,95.571 181.722 C 95.571 181.825,95.701 181.909,95.861 181.909 C 96.407 181.909,98.689 183.503,99.950 184.765 C 101.141 185.958,101.591 186.765,102.296 188.970 C 102.940 190.987,101.669 195.087,99.845 196.873 C 99.093 197.610,96.773 199.127,96.398 199.127 C 96.260 199.127,95.820 199.289,95.422 199.487 C 93.724 200.330,89.430 200.612,87.711 199.993 C 87.162 199.795,86.526 199.632,86.299 199.629 C 84.162 199.610,78.290 193.952,79.080 192.674 C 79.277 192.355,81.168 191.221,81.909 190.978 C 82.149 190.899,82.346 190.757,82.346 190.664 C 82.346 190.379,84.130 189.829,84.317 190.056 C 84.413 190.173,84.908 190.794,85.418 191.437 C 88.398 195.197,95.075 194.613,95.071 190.593 C 95.069 189.206,93.060 186.900,91.853 186.900 C 91.724 186.900,91.245 186.712,90.788 186.483 C 89.279 185.727,89.093 185.652,88.732 185.652 C 88.536 185.652,88.057 185.490,87.668 185.293 C 87.280 185.095,86.517 184.742,85.974 184.508 C 81.801 182.708,79.850 179.973,79.850 175.921 C 79.850 173.423,80.460 172.010,82.327 170.181 C 83.599 168.935,84.088 168.616,86.089 167.728 C 87.595 167.059,90.171 166.922,93.506 167.335 M189.269 170.236 C 189.206 170.412,189.124 171.622,189.087 172.926 L 189.021 175.296 187.596 175.423 C 185.644 175.597,185.624 175.635,185.706 178.936 L 185.777 181.784 187.399 181.909 L 189.021 182.034 189.160 188.522 C 189.308 195.476,189.412 196.050,190.897 198.136 C 192.169 199.921,196.237 200.790,199.773 200.030 C 201.965 199.560,201.871 199.723,201.871 196.367 L 201.871 193.387 199.613 193.387 L 197.354 193.387 196.993 192.522 C 196.719 191.867,196.631 190.474,196.631 186.783 L 196.631 181.909 198.993 181.909 C 201.890 181.909,201.871 181.932,201.871 178.334 C 201.871 175.267,202.030 175.421,198.865 175.421 L 196.648 175.421 196.577 172.739 L 196.507 170.056 192.946 169.987 C 190.232 169.934,189.357 169.993,189.269 170.236 M196.329 172.917 C 196.413 176.004,196.326 175.911,199.162 175.916 C 201.689 175.921,201.623 175.849,201.619 178.623 C 201.613 181.748,201.716 181.630,198.913 181.713 L 196.507 181.784 196.439 187.185 L 196.372 192.586 197.183 193.268 C 197.951 193.915,198.087 193.942,199.807 193.797 L 201.622 193.643 201.622 196.242 C 201.622 199.419,201.559 199.503,198.994 199.743 C 191.139 200.479,189.692 198.706,189.426 188.022 L 189.270 181.784 187.905 181.707 C 185.983 181.598,185.901 181.480,185.901 178.809 C 185.901 176.232,186.060 175.922,187.386 175.917 C 189.371 175.909,189.395 175.878,189.395 173.291 C 189.395 169.935,189.136 170.155,192.980 170.236 L 196.257 170.306 196.329 172.917 M118.347 175.386 C 117.630 175.481,116.900 175.711,116.725 175.898 C 116.460 176.181,116.511 176.204,117.031 176.036 C 126.946 172.837,135.424 184.021,130.555 193.878 C 127.808 199.440,119.405 201.979,115.353 198.472 C 113.988 197.290,113.924 197.485,113.787 203.247 L 113.662 208.484 110.792 208.557 C 109.214 208.596,107.670 208.566,107.361 208.489 L 106.800 208.350 106.800 192.415 C 106.800 179.112,106.857 176.433,107.147 176.192 C 107.379 176.000,108.517 175.928,110.578 175.975 L 113.662 176.045 113.742 176.746 C 113.855 177.732,114.368 177.820,115.403 177.030 C 116.462 176.223,116.391 175.881,115.322 176.642 C 114.391 177.305,114.286 177.300,114.286 176.594 C 114.286 176.278,114.151 175.885,113.986 175.721 C 113.608 175.342,107.727 175.308,107.033 175.679 C 106.352 176.044,106.266 208.446,106.945 208.707 C 107.612 208.963,113.290 208.874,113.803 208.600 C 114.256 208.358,114.286 208.030,114.286 203.360 C 114.286 200.620,114.370 198.380,114.473 198.383 C 114.576 198.385,115.142 198.714,115.730 199.113 C 117.376 200.228,121.403 200.798,123.070 200.152 C 127.485 198.440,129.188 197.114,130.795 194.136 C 132.155 191.616,132.649 185.788,131.704 183.406 C 129.401 177.602,124.380 174.587,118.347 175.386 M146.080 175.433 C 143.431 175.779,137.742 179.206,137.742 180.455 C 137.742 180.587,137.483 181.052,137.167 181.489 C 133.276 186.870,135.910 195.917,142.233 198.887 C 142.576 199.048,143.082 199.300,143.356 199.446 C 144.701 200.163,150.504 200.688,151.049 200.142 C 151.196 199.995,151.525 199.875,151.779 199.875 C 152.810 199.875,156.204 197.912,157.582 196.518 C 163.555 190.477,161.728 180.316,154.007 176.631 C 151.130 175.258,149.411 174.998,146.080 175.433 M179.289 175.398 C 178.256 175.501,177.366 175.794,176.419 176.344 C 174.982 177.177,174.855 177.298,173.367 179.250 L 172.445 180.459 172.374 178.002 L 172.302 175.546 168.883 175.477 C 165.693 175.412,165.447 175.440,165.200 175.901 C 165.022 176.234,164.957 180.204,165.001 188.073 L 165.066 199.750 168.684 199.750 L 172.302 199.750 172.458 194.510 C 172.654 187.895,172.859 187.092,174.900 184.953 C 176.381 183.401,178.119 182.663,180.299 182.660 C 182.663 182.657,182.658 182.666,182.658 178.858 L 182.658 175.658 182.017 175.415 C 181.665 175.281,181.244 175.189,181.082 175.210 C 180.919 175.231,180.112 175.315,179.289 175.398 M235.808 175.383 C 234.785 175.544,233.596 176.011,231.382 177.122 C 229.544 178.044,226.326 181.667,226.326 182.814 C 226.326 183.006,226.215 183.358,226.079 183.597 C 225.117 185.287,225.128 190.235,226.097 192.389 C 226.252 192.732,226.561 193.406,226.784 193.886 C 227.334 195.070,230.459 198.145,231.691 198.715 C 234.588 200.054,234.897 200.129,238.273 200.295 C 239.757 200.368,240.711 200.312,240.880 200.143 C 241.028 199.996,241.351 199.875,241.600 199.875 C 243.410 199.875,247.666 196.843,249.130 194.510 C 250.818 191.821,251.580 185.756,250.436 184.123 C 250.214 183.805,250.031 183.343,250.031 183.096 C 250.031 181.955,247.629 178.900,245.821 177.742 C 242.442 175.578,239.284 174.834,235.808 175.383 M269.370 175.409 C 266.787 175.688,264.465 177.210,263.207 179.449 C 262.413 180.860,262.284 180.671,262.205 177.979 L 262.133 175.546 258.715 175.477 C 255.525 175.412,255.279 175.440,255.032 175.901 C 254.854 176.234,254.789 180.204,254.832 188.073 L 254.897 199.750 258.578 199.820 L 262.258 199.889 262.258 195.001 C 262.258 186.204,264.308 182.985,270.119 182.659 L 272.364 182.533 272.434 179.098 L 272.503 175.664 271.856 175.418 C 271.500 175.282,271.132 175.189,271.038 175.210 C 270.944 175.231,270.193 175.320,269.370 175.409 M289.333 175.429 C 287.650 175.649,286.486 176.204,285.206 177.397 C 283.955 178.564,283.718 178.513,283.718 177.078 C 283.718 175.491,283.553 175.421,279.794 175.421 L 276.469 175.421 276.226 176.061 C 275.930 176.840,275.898 199.107,276.193 199.570 C 276.345 199.811,277.282 199.872,279.994 199.820 L 283.593 199.750 283.718 192.639 C 283.849 185.185,283.840 185.246,285.069 183.568 C 286.864 181.118,291.071 181.455,292.676 184.179 L 293.324 185.278 293.449 192.514 L 293.575 199.750 297.318 199.750 L 301.061 199.750 301.121 192.888 C 301.164 188.034,301.273 185.844,301.492 185.402 C 303.549 181.261,308.333 180.616,310.217 184.226 C 310.735 185.218,310.774 185.689,310.904 192.514 L 311.042 199.750 314.660 199.750 L 318.278 199.750 318.349 192.015 C 318.427 183.602,318.366 183.081,316.953 180.162 C 314.116 174.298,305.518 173.493,300.881 178.657 L 299.607 180.076 298.053 178.499 C 295.589 175.999,292.717 174.988,289.333 175.429 M152.090 176.139 C 159.803 179.238,162.797 186.217,159.490 193.387 C 158.649 195.213,156.086 197.807,154.648 198.290 C 154.407 198.370,154.211 198.527,154.211 198.637 C 154.211 198.747,153.846 198.915,153.400 199.011 C 152.954 199.106,152.477 199.267,152.339 199.368 C 150.644 200.613,144.949 200.111,142.233 198.477 C 141.890 198.270,141.267 197.947,140.849 197.759 C 139.718 197.248,137.945 195.209,137.157 193.512 C 136.775 192.689,136.344 191.798,136.199 191.533 C 135.865 190.925,135.849 184.761,136.180 184.341 C 136.315 184.170,136.503 183.707,136.597 183.312 C 136.692 182.917,137.044 182.189,137.380 181.694 C 137.716 181.200,137.998 180.681,138.007 180.541 C 138.061 179.663,143.339 176.173,144.616 176.171 C 144.898 176.170,145.235 176.064,145.365 175.934 C 145.902 175.402,150.611 175.545,152.090 176.139 M182.404 178.727 C 182.400 182.420,182.500 182.266,180.037 182.358 C 178.831 182.403,177.822 182.576,177.489 182.795 C 177.185 182.994,176.789 183.157,176.609 183.157 C 176.154 183.157,173.751 185.529,173.277 186.445 C 172.343 188.251,172.183 189.439,172.180 194.573 L 172.177 199.626 168.808 199.626 L 165.440 199.626 165.440 187.766 L 165.440 175.906 168.746 175.975 L 172.052 176.045 172.177 178.458 C 172.329 181.398,172.418 181.510,173.370 179.963 C 174.314 178.428,175.629 176.918,176.021 176.918 C 176.185 176.918,176.454 176.784,176.619 176.619 C 177.184 176.054,178.543 175.730,180.474 175.700 L 182.408 175.671 182.404 178.727 M241.753 176.054 C 245.776 177.455,249.254 180.675,249.893 183.590 C 249.990 184.035,250.173 184.463,250.300 184.541 C 250.759 184.825,250.569 190.418,250.053 191.831 C 246.416 201.782,231.433 202.861,226.984 193.492 C 226.729 192.954,226.416 192.313,226.290 192.068 C 225.078 189.716,225.826 183.451,227.608 181.036 C 230.852 176.636,237.104 174.434,241.753 176.054 M272.237 178.977 L 272.234 182.283 270.121 182.338 C 264.301 182.489,262.005 185.987,262.007 194.697 L 262.009 199.626 258.640 199.626 L 255.271 199.626 255.271 187.773 L 255.271 175.920 258.640 175.920 L 262.009 175.920 262.013 178.228 C 262.015 179.498,262.121 180.702,262.249 180.904 C 262.519 181.332,262.452 181.397,263.450 179.741 C 265.215 176.814,267.099 175.698,270.306 175.681 L 272.240 175.671 272.237 178.977 M295.019 176.642 C 296.922 177.620,297.872 178.414,298.943 179.917 L 299.525 180.735 300.120 180.012 C 302.782 176.771,304.931 175.673,308.612 175.672 C 310.021 175.671,311.368 175.766,311.607 175.883 C 311.845 176.000,312.489 176.309,313.038 176.570 C 314.168 177.106,316.126 178.990,316.594 179.993 C 317.936 182.868,317.998 183.361,318.086 191.828 L 318.167 199.626 314.792 199.626 L 311.416 199.626 311.416 193.699 C 311.416 183.934,310.613 181.924,306.621 181.699 C 304.616 181.585,303.018 182.411,301.775 184.203 L 301.061 185.234 300.936 192.367 L 300.811 199.501 297.318 199.501 L 293.824 199.501 293.699 192.265 C 293.569 184.696,293.587 184.825,292.392 183.191 C 290.284 180.307,283.718 182.002,283.718 185.430 C 283.718 185.673,283.606 185.941,283.468 186.026 C 283.312 186.123,283.219 188.690,283.219 192.903 L 283.219 199.626 279.850 199.626 L 276.482 199.626 276.482 187.773 L 276.482 175.920 279.850 175.920 L 283.219 175.920 283.219 177.527 C 283.219 179.594,283.470 179.706,284.822 178.242 C 285.431 177.583,286.358 176.834,286.882 176.579 C 287.406 176.324,288.004 176.021,288.210 175.907 C 289.393 175.252,293.093 175.651,295.019 176.642 M117.304 181.841 C 116.409 182.009,114.036 184.482,114.036 185.247 C 114.036 185.591,113.924 185.941,113.787 186.026 C 113.126 186.435,113.712 190.116,114.685 191.673 C 116.499 194.571,122.400 194.701,123.915 191.876 C 124.040 191.644,124.363 191.074,124.634 190.611 C 125.023 189.944,125.122 189.328,125.109 187.639 C 125.076 183.216,122.025 180.950,117.304 181.841 M145.422 182.419 C 142.452 184.404,141.491 189.710,143.752 191.641 C 143.832 191.709,144.013 191.976,144.154 192.233 C 145.564 194.815,151.183 194.215,153.139 191.274 C 156.577 186.108,150.440 179.066,145.422 182.419 M235.892 182.060 C 232.880 183.545,231.273 188.706,233.103 191.012 C 234.340 192.571,234.654 192.888,234.957 192.888 C 235.150 192.888,235.309 192.983,235.309 193.098 C 235.309 193.214,235.971 193.509,236.780 193.754 C 243.371 195.749,246.923 185.020,240.625 182.138 C 239.342 181.551,237.002 181.513,235.892 182.060 M121.287 182.356 C 125.771 184.037,126.222 190.623,122.017 193.006 C 119.140 194.636,114.286 192.617,114.286 189.790 C 114.286 189.453,114.177 188.892,114.044 188.542 C 112.612 184.776,117.228 180.834,121.287 182.356 M149.994 182.197 C 153.780 183.485,154.941 188.331,152.302 191.828 C 151.966 192.274,151.541 192.639,151.359 192.639 C 151.177 192.639,150.888 192.807,150.717 193.013 C 150.547 193.219,150.112 193.389,149.751 193.391 C 149.390 193.393,148.950 193.487,148.773 193.600 C 148.421 193.823,146.881 193.458,145.426 192.806 C 143.656 192.013,142.536 189.045,143.023 186.436 C 143.628 183.199,146.968 181.168,149.994 182.197 M240.428 182.434 C 244.726 184.705,244.507 192.376,240.119 193.265 C 239.738 193.343,239.145 193.489,238.802 193.592 C 234.936 194.743,231.387 189.015,233.384 184.847 C 234.571 182.369,238.050 181.178,240.428 182.434 " stroke="none" fill="#8c8c8c" fill-rule="evenodd"></path><path id="path4" d="M196.382 56.395 C 195.764 56.512,194.556 56.615,193.698 56.625 C 190.018 56.669,183.069 58.545,178.241 60.799 C 177.252 61.260,176.186 61.750,175.870 61.887 C 174.108 62.655,169.094 66.011,166.812 67.948 C 164.612 69.817,158.702 75.708,158.702 76.033 C 158.702 76.187,171.347 88.946,186.801 104.388 C 202.256 119.829,214.832 132.573,214.749 132.708 C 213.186 135.238,199.492 138.102,194.136 137.020 C 193.381 136.867,192.097 136.624,191.283 136.481 C 181.029 134.668,171.483 126.025,167.587 115.026 C 167.367 114.404,167.187 113.719,167.187 113.505 C 167.187 112.334,166.766 112.278,158.429 112.348 L 150.593 112.414 150.512 112.985 C 150.418 113.645,150.934 115.899,151.994 119.464 C 152.260 120.360,152.513 121.001,153.337 122.870 C 153.543 123.337,153.712 123.820,153.712 123.945 C 153.712 124.499,156.586 129.721,158.368 132.403 C 159.334 133.858,159.781 134.418,161.720 136.605 C 162.214 137.162,162.831 137.891,163.093 138.226 C 164.394 139.894,171.280 145.727,171.948 145.727 C 172.052 145.727,173.017 146.263,174.091 146.918 C 175.166 147.573,176.326 148.238,176.669 148.395 C 177.012 148.552,177.910 148.966,178.665 149.316 C 180.355 150.099,186.003 151.965,186.684 151.965 C 186.958 151.965,187.393 152.078,187.651 152.216 C 190.214 153.588,206.326 153.605,209.233 152.240 C 209.507 152.111,210.606 151.810,211.675 151.571 C 212.744 151.333,213.677 151.043,213.749 150.927 C 213.820 150.812,214.131 150.717,214.440 150.717 C 214.749 150.717,215.219 150.553,215.486 150.351 C 215.752 150.150,216.168 149.981,216.410 149.977 C 216.652 149.972,217.045 149.861,217.283 149.729 C 217.522 149.597,218.840 148.942,220.212 148.274 C 221.585 147.606,223.662 146.423,224.828 145.647 C 225.995 144.870,227.164 144.093,227.426 143.920 C 227.975 143.557,229.211 142.535,230.817 141.116 C 232.676 139.473,238.035 133.895,238.044 133.592 C 238.053 133.333,228.790 124.028,194.765 90.118 C 187.832 83.207,182.158 77.402,182.158 77.216 C 182.158 77.031,182.580 76.686,183.094 76.451 C 183.609 76.215,184.183 75.904,184.371 75.761 C 184.744 75.474,185.617 75.134,188.272 74.242 C 196.522 71.468,205.371 72.147,213.475 76.177 C 218.438 78.644,225.683 85.779,227.088 89.582 C 227.164 89.788,227.568 90.686,227.986 91.578 C 228.405 92.470,228.946 93.818,229.189 94.573 C 229.431 95.328,229.778 96.226,229.958 96.569 L 230.287 97.193 238.225 97.193 L 246.163 97.193 246.126 95.945 C 246.024 92.475,243.479 85.459,240.381 80.100 C 239.751 79.009,237.377 75.610,237.071 75.359 C 236.988 75.290,236.705 74.897,236.443 74.485 C 235.202 72.535,227.804 65.627,226.956 65.627 C 226.877 65.627,226.425 65.276,225.953 64.846 C 225.481 64.416,224.558 63.794,223.901 63.463 C 223.245 63.132,222.146 62.525,221.460 62.115 C 220.774 61.705,220.044 61.306,219.838 61.230 C 219.632 61.154,218.900 60.820,218.212 60.489 C 217.524 60.159,216.789 59.888,216.578 59.888 C 216.367 59.888,216.088 59.791,215.958 59.672 C 215.543 59.295,212.064 58.210,209.482 57.652 C 208.110 57.355,206.762 57.059,206.488 56.994 C 206.213 56.929,204.620 56.772,202.946 56.646 C 201.273 56.519,199.364 56.363,198.704 56.300 C 198.044 56.236,196.999 56.279,196.382 56.395 M205.365 57.268 C 206.120 57.470,207.097 57.637,207.537 57.639 C 207.976 57.641,208.594 57.741,208.909 57.863 C 209.224 57.984,210.324 58.275,211.354 58.508 C 212.383 58.742,213.450 59.022,213.724 59.131 C 213.999 59.240,214.729 59.524,215.346 59.762 C 215.964 60.001,217.032 60.463,217.720 60.790 C 218.409 61.117,219.112 61.385,219.284 61.385 C 219.456 61.385,220.502 61.946,221.609 62.633 C 222.715 63.319,223.708 63.880,223.816 63.880 C 223.980 63.880,225.191 64.743,226.220 65.594 C 226.368 65.716,226.962 66.114,227.540 66.479 C 228.495 67.082,230.751 69.063,232.684 70.996 C 234.195 72.507,236.556 75.114,236.556 75.271 C 236.556 75.360,236.928 75.893,237.382 76.456 C 238.276 77.565,239.800 79.799,239.800 80.000 C 239.800 80.068,240.165 80.710,240.611 81.427 C 241.057 82.144,241.598 83.122,241.813 83.599 C 242.028 84.076,242.505 85.086,242.874 85.843 C 243.242 86.600,243.543 87.407,243.543 87.637 C 243.543 87.867,243.656 88.125,243.793 88.210 C 243.930 88.294,244.043 88.554,244.044 88.786 C 244.045 89.018,244.213 89.529,244.418 89.922 C 244.623 90.316,244.795 90.933,244.800 91.295 C 244.805 91.657,244.969 92.233,245.165 92.576 C 245.361 92.920,245.526 93.615,245.531 94.121 C 245.536 94.628,245.652 95.112,245.789 95.197 C 245.926 95.281,246.039 95.681,246.039 96.085 L 246.039 96.818 238.239 96.818 L 230.440 96.818 230.173 96.132 C 229.616 94.703,229.265 93.680,229.136 93.113 C 228.950 92.293,226.704 87.971,225.951 86.984 C 225.608 86.534,225.328 86.085,225.328 85.985 C 225.328 85.885,225.187 85.656,225.016 85.477 C 224.679 85.124,223.324 83.544,222.052 82.020 C 221.616 81.497,220.237 80.293,218.989 79.343 C 217.740 78.393,216.508 77.451,216.250 77.251 C 215.686 76.812,211.671 74.842,210.106 74.236 C 208.195 73.497,208.021 73.438,206.737 73.108 C 202.453 72.006,193.526 71.861,191.615 72.862 C 191.395 72.977,190.692 73.150,190.052 73.246 C 189.413 73.342,188.828 73.519,188.753 73.641 C 188.678 73.762,188.402 73.862,188.139 73.862 C 187.644 73.862,185.426 74.796,183.905 75.645 C 183.425 75.913,182.723 76.250,182.346 76.394 C 180.891 76.948,180.711 76.756,209.749 105.662 L 237.839 133.624 234.742 136.744 C 231.500 140.009,228.934 142.434,228.273 142.857 C 228.059 142.994,226.719 143.892,225.295 144.852 C 222.688 146.610,216.802 149.719,216.080 149.719 C 215.866 149.719,215.473 149.884,215.207 150.086 C 214.940 150.287,214.483 150.456,214.189 150.460 C 213.896 150.464,213.335 150.636,212.942 150.841 C 212.549 151.046,211.917 151.214,211.537 151.215 C 211.158 151.216,210.653 151.320,210.415 151.447 C 209.685 151.836,206.554 152.465,205.352 152.465 C 204.728 152.464,204.102 152.580,203.960 152.721 C 203.627 153.054,193.621 153.054,192.265 152.721 C 191.716 152.586,190.859 152.473,190.361 152.470 C 189.863 152.467,189.053 152.296,188.560 152.090 C 188.067 151.884,187.378 151.716,187.029 151.716 C 186.680 151.716,186.199 151.616,185.960 151.494 C 185.722 151.372,184.348 150.902,182.907 150.449 C 181.466 149.996,180.119 149.545,179.913 149.445 C 179.196 149.099,176.791 148.016,176.419 147.871 C 176.213 147.792,175.823 147.585,175.552 147.413 C 173.786 146.289,172.390 145.477,172.226 145.477 C 172.121 145.477,171.702 145.198,171.295 144.856 C 170.567 144.244,168.717 142.847,167.987 142.358 C 167.783 142.221,167.129 141.659,166.534 141.110 C 165.939 140.561,165.141 139.831,164.760 139.487 C 164.379 139.143,163.618 138.302,163.069 137.618 C 162.174 136.503,160.287 134.321,159.940 133.999 C 159.705 133.781,157.704 130.766,157.704 130.630 C 157.704 130.558,157.143 129.604,156.457 128.509 C 155.770 127.414,155.209 126.460,155.209 126.390 C 155.209 126.319,154.928 125.679,154.585 124.968 C 154.242 124.256,153.961 123.577,153.961 123.458 C 153.961 123.339,153.715 122.714,153.415 122.070 C 152.672 120.478,151.983 118.503,151.973 117.937 C 151.969 117.681,151.785 116.895,151.564 116.191 C 150.778 113.679,150.688 113.287,150.841 113.040 C 151.055 112.693,165.806 112.700,166.454 113.047 C 166.745 113.202,166.941 113.575,166.946 113.983 C 166.951 114.355,167.115 114.941,167.311 115.284 C 167.507 115.627,167.672 116.089,167.677 116.311 C 167.758 120.019,176.856 130.887,181.784 133.163 C 182.333 133.417,182.838 133.694,182.907 133.779 C 183.364 134.344,189.625 136.744,190.644 136.744 C 191.014 136.744,191.642 136.853,192.040 136.986 C 194.232 137.721,204.047 137.741,204.984 137.012 C 205.125 136.902,205.771 136.743,206.420 136.659 C 207.069 136.574,207.855 136.373,208.167 136.211 C 209.325 135.611,209.608 135.496,209.916 135.504 C 210.460 135.518,215.076 133.143,215.222 132.773 C 215.313 132.544,205.625 122.695,187.281 104.369 C 171.837 88.940,159.201 76.197,159.201 76.053 C 159.201 75.219,167.528 67.618,170.930 65.346 C 172.233 64.476,173.356 63.704,173.425 63.631 C 173.493 63.558,174.026 63.275,174.607 63.003 C 175.189 62.731,175.666 62.424,175.668 62.321 C 175.669 62.218,175.850 62.133,176.069 62.133 C 176.288 62.133,176.765 61.974,177.129 61.779 C 177.494 61.584,177.960 61.358,178.166 61.277 C 178.372 61.196,178.877 60.915,179.289 60.652 C 179.701 60.389,180.318 60.162,180.661 60.148 C 181.004 60.133,181.503 59.957,181.769 59.755 C 182.036 59.554,182.506 59.389,182.815 59.389 C 183.124 59.389,183.440 59.286,183.517 59.161 C 183.595 59.036,184.106 58.857,184.654 58.765 C 185.201 58.672,185.713 58.494,185.790 58.369 C 185.868 58.244,186.423 58.141,187.024 58.141 C 187.626 58.141,188.187 58.029,188.272 57.891 C 188.357 57.754,188.841 57.631,189.347 57.618 C 189.854 57.605,190.830 57.450,191.516 57.273 C 193.394 56.791,203.572 56.786,205.365 57.268 M87.992 166.635 C 87.925 166.744,88.284 166.792,88.789 166.742 C 90.170 166.606,90.334 166.480,89.160 166.458 C 88.585 166.447,88.059 166.527,87.992 166.635 M90.351 166.528 C 90.409 166.577,91.185 166.688,92.077 166.775 C 93.169 166.881,93.577 166.853,93.325 166.689 C 92.988 166.470,90.103 166.313,90.351 166.528 M212.976 166.687 C 212.793 166.983,213.037 166.983,213.724 166.687 C 214.205 166.481,214.204 166.472,213.677 166.455 C 213.376 166.446,213.060 166.550,212.976 166.687 M218.715 166.695 C 219.264 166.801,219.994 166.966,220.337 167.061 C 220.906 167.218,220.898 167.198,220.246 166.835 C 219.853 166.617,219.123 166.452,218.624 166.469 L 217.717 166.500 218.715 166.695 M85.700 167.330 C 85.433 167.546,85.380 167.637,85.581 167.531 C 85.782 167.426,86.344 167.262,86.829 167.167 C 87.706 166.995,87.706 166.994,86.947 166.966 C 86.527 166.950,85.966 167.114,85.700 167.330 M94.697 167.318 C 95.948 167.769,96.118 167.767,95.321 167.311 C 94.978 167.115,94.473 166.956,94.198 166.957 C 93.924 166.958,94.148 167.121,94.697 167.318 M211.416 167.102 C 211.245 167.171,211.104 167.345,211.104 167.487 C 211.104 167.664,211.204 167.665,211.416 167.493 C 211.588 167.354,211.953 167.185,212.227 167.118 L 212.726 166.995 212.227 166.986 C 211.953 166.981,211.588 167.033,211.416 167.102 M221.445 167.569 C 221.711 167.770,222.034 167.935,222.162 167.935 C 222.291 167.935,222.326 168.299,222.240 168.746 C 222.129 169.323,222.155 169.449,222.330 169.183 C 222.739 168.559,222.615 168.014,221.968 167.590 C 221.202 167.088,220.787 167.071,221.445 167.569 M97.513 168.770 C 98.360 169.367,99.514 170.350,100.077 170.954 C 100.978 171.920,100.729 171.329,99.752 170.181 C 99.370 169.732,96.422 167.686,96.158 167.686 C 96.056 167.686,96.666 168.174,97.513 168.770 M209.325 168.871 C 208.520 169.755,207.859 170.825,207.866 171.233 C 207.869 171.409,208.058 171.174,208.287 170.711 C 208.515 170.248,209.059 169.490,209.496 169.027 C 209.932 168.564,210.213 168.185,210.120 168.185 C 210.026 168.185,209.669 168.493,209.325 168.871 M81.737 169.948 C 81.220 170.506,80.837 171.001,80.886 171.048 C 80.934 171.095,81.429 170.639,81.985 170.034 C 82.542 169.428,82.925 168.933,82.836 168.933 C 82.748 168.933,82.253 169.390,81.737 169.948 M189.024 169.987 C 188.832 170.537,188.762 175.408,188.948 175.220 C 189.046 175.122,189.158 173.920,189.198 172.549 L 189.270 170.056 192.888 170.056 L 196.507 170.056 196.577 172.739 C 196.639 175.081,196.702 175.421,197.076 175.417 C 197.373 175.415,197.412 175.354,197.202 175.221 C 197.005 175.096,196.875 174.121,196.828 172.418 L 196.756 169.807 192.945 169.738 C 190.030 169.685,189.109 169.744,189.024 169.987 M79.903 172.435 C 79.737 172.701,79.605 173.061,79.611 173.234 C 79.616 173.408,79.793 173.231,80.005 172.841 C 80.443 172.032,80.361 171.702,79.903 172.435 M207.512 172.453 C 207.328 173.032,207.070 175.546,207.208 175.408 C 207.377 175.239,207.837 172.332,207.716 172.204 C 207.664 172.150,207.573 172.262,207.512 172.453 M216.654 172.858 C 215.770 172.966,215.084 173.907,215.112 174.972 C 215.122 175.339,215.270 175.119,215.523 174.361 C 215.953 173.071,216.128 172.999,218.465 173.154 C 219.014 173.191,219.407 173.169,219.339 173.106 C 219.119 172.905,217.494 172.755,216.654 172.858 M101.560 173.271 C 101.560 173.477,101.310 173.821,101.005 174.035 C 100.586 174.328,100.549 174.423,100.852 174.423 C 101.350 174.423,102.155 173.264,101.806 173.049 C 101.671 172.965,101.560 173.065,101.560 173.271 M88.334 174.049 C 87.939 174.525,88.310 174.520,88.944 174.041 C 89.331 173.747,89.350 173.674,89.036 173.674 C 88.821 173.674,88.505 173.843,88.334 174.049 M92.293 174.058 C 92.755 174.259,93.204 174.419,93.291 174.414 C 93.616 174.396,92.187 173.692,91.828 173.693 C 91.622 173.693,91.831 173.858,92.293 174.058 M87.492 174.807 C 87.406 175.030,87.352 175.680,87.371 176.252 C 87.404 177.231,87.417 177.211,87.581 175.920 C 87.767 174.457,87.743 174.153,87.492 174.807 M93.575 174.490 C 93.575 174.684,95.754 176.748,96.094 176.876 C 96.392 176.987,98.316 176.122,98.316 175.876 C 98.316 175.768,97.919 175.902,97.435 176.174 C 96.225 176.853,96.123 176.827,94.768 175.493 C 94.112 174.846,93.575 174.395,93.575 174.490 M79.211 175.269 C 79.129 175.597,79.171 176.355,79.304 176.953 L 79.547 178.041 79.574 176.357 C 79.602 174.619,79.472 174.230,79.211 175.269 M118.653 175.151 C 118.223 175.249,118.945 175.316,120.349 175.309 C 121.694 175.302,122.536 175.223,122.221 175.134 C 121.480 174.925,119.610 174.934,118.653 175.151 M146.600 175.152 C 145.997 175.249,146.668 175.309,148.299 175.304 C 149.782 175.300,150.736 175.223,150.420 175.134 C 149.705 174.933,147.922 174.941,146.600 175.152 M179.788 175.172 C 178.881 175.346,178.911 175.356,180.124 175.283 C 180.858 175.239,181.757 175.315,182.121 175.452 C 182.580 175.626,182.704 175.622,182.525 175.441 C 182.156 175.068,180.947 174.949,179.788 175.172 M236.182 175.142 C 235.770 175.230,236.647 175.301,238.129 175.299 C 239.612 175.298,240.566 175.223,240.250 175.134 C 239.519 174.928,237.159 174.932,236.182 175.142 M269.619 175.180 C 268.691 175.373,268.718 175.382,269.994 175.310 C 272.477 175.169,272.463 175.148,272.552 178.968 L 272.630 182.283 272.680 179.039 C 272.745 174.928,272.472 174.585,269.619 175.180 M289.457 175.163 C 288.835 175.288,289.157 175.337,290.580 175.335 C 291.814 175.333,292.338 175.263,291.953 175.152 C 291.190 174.932,290.597 174.934,289.457 175.163 M307.174 175.166 C 306.378 175.286,306.764 175.330,308.497 175.316 C 309.842 175.305,310.684 175.223,310.368 175.134 C 309.661 174.934,308.645 174.944,307.174 175.166 M106.424 175.983 C 106.110 177.277,106.417 208.690,106.744 208.757 C 106.919 208.792,106.947 208.764,106.806 208.694 C 106.292 208.439,106.470 175.992,106.987 175.691 C 107.398 175.451,107.398 175.436,106.992 175.429 C 106.747 175.424,106.501 175.664,106.424 175.983 M116.323 175.791 C 116.003 175.967,115.610 176.248,115.450 176.414 C 115.203 176.670,116.960 175.801,117.259 175.519 C 117.481 175.310,116.877 175.486,116.323 175.791 M123.544 175.530 C 123.917 175.903,126.053 176.643,125.770 176.301 C 125.596 176.092,125.249 175.920,125.000 175.920 C 124.750 175.920,124.477 175.808,124.392 175.671 C 124.307 175.533,124.057 175.421,123.836 175.421 C 123.616 175.421,123.484 175.470,123.544 175.530 M164.947 175.908 C 164.774 176.232,164.708 180.346,164.751 188.198 L 164.816 200.000 168.407 200.069 C 173.294 200.164,172.926 200.654,172.926 194.056 C 172.926 187.315,172.589 187.593,172.427 194.468 L 172.302 199.750 168.684 199.750 L 165.066 199.750 165.001 188.073 C 164.958 180.307,165.023 176.232,165.197 175.908 C 165.340 175.640,165.401 175.421,165.333 175.421 C 165.264 175.421,165.090 175.640,164.947 175.908 M172.381 177.944 C 172.459 180.405,172.464 180.421,172.924 179.857 C 173.178 179.545,173.283 179.251,173.156 179.206 C 173.030 179.160,172.926 178.416,172.926 177.552 C 172.926 176.600,172.803 175.879,172.614 175.721 C 172.367 175.516,172.318 175.979,172.381 177.944 M185.554 175.816 C 185.266 176.567,185.388 181.545,185.702 181.859 C 185.867 182.024,186.653 182.158,187.449 182.158 L 188.896 182.158 188.921 187.960 C 188.934 191.151,189.019 194.023,189.108 194.342 C 189.197 194.661,189.238 192.134,189.198 188.727 C 189.112 181.313,189.284 181.951,187.349 181.859 L 185.777 181.784 185.706 178.918 C 185.644 176.439,185.693 176.008,186.065 175.736 C 186.438 175.464,186.443 175.421,186.101 175.421 C 185.883 175.421,185.637 175.599,185.554 175.816 M201.616 175.585 C 201.954 175.753,201.951 180.794,201.613 181.426 C 201.386 181.851,201.073 181.909,198.993 181.909 L 196.631 181.909 196.631 186.783 C 196.631 190.474,196.719 191.867,196.993 192.522 L 197.354 193.387 199.613 193.387 L 201.871 193.387 201.871 196.369 C 201.871 198.946,201.812 199.386,201.435 199.606 C 201.028 199.843,201.027 199.861,201.426 199.868 C 202.143 199.880,202.371 199.027,202.371 196.323 C 202.371 193.127,202.380 193.138,199.588 193.138 L 197.403 193.138 197.144 192.202 C 197.001 191.687,196.883 189.217,196.882 186.712 L 196.881 182.158 199.109 182.158 C 202.150 182.158,202.156 182.151,202.066 178.473 C 202.015 176.379,201.909 175.569,201.678 175.523 C 201.503 175.487,201.475 175.516,201.616 175.585 M219.963 178.626 L 219.963 181.784 217.467 181.923 L 214.972 182.062 217.355 182.110 C 218.935 182.142,219.839 182.058,220.037 181.859 C 220.371 181.526,220.473 175.785,220.150 175.584 C 220.047 175.520,219.963 176.889,219.963 178.626 M242.920 176.150 C 245.172 177.191,247.139 178.530,247.969 179.589 C 249.133 181.074,250.031 182.605,250.031 183.104 C 250.031 183.604,250.759 184.713,250.772 184.232 C 250.776 184.068,250.667 183.865,250.530 183.780 C 250.393 183.696,250.281 183.410,250.281 183.146 C 250.281 181.240,244.866 175.920,242.925 175.920 C 242.733 175.920,242.505 175.808,242.420 175.671 C 242.336 175.533,242.076 175.429,241.844 175.440 C 241.612 175.450,242.096 175.769,242.920 176.150 M254.835 175.586 C 254.307 175.799,254.388 199.770,254.917 199.973 C 255.135 200.057,256.847 200.101,258.723 200.073 L 262.133 200.021 258.515 199.886 L 254.897 199.750 254.832 188.073 C 254.789 180.307,254.855 176.232,255.028 175.908 C 255.172 175.640,255.257 175.430,255.218 175.441 C 255.179 175.452,255.006 175.517,254.835 175.586 M262.212 177.939 C 262.298 180.623,262.411 180.831,263.112 179.601 C 263.366 179.155,264.031 178.313,264.590 177.729 C 265.149 177.146,265.473 176.669,265.310 176.669 C 265.148 176.669,264.551 177.258,263.984 177.979 C 262.586 179.754,262.508 179.733,262.508 177.578 C 262.508 176.545,262.424 175.648,262.321 175.584 C 262.218 175.520,262.169 176.580,262.212 177.939 M283.406 175.689 C 283.578 175.871,283.718 176.496,283.718 177.078 C 283.718 177.660,283.811 178.194,283.925 178.264 C 284.151 178.404,285.841 176.962,285.661 176.782 C 285.600 176.721,285.287 176.951,284.965 177.294 C 284.151 178.160,284.006 178.085,283.919 176.751 C 283.869 175.980,283.716 175.547,283.468 175.472 C 283.166 175.381,283.154 175.423,283.406 175.689 M294.822 176.155 C 295.646 176.538,296.853 177.326,297.505 177.904 C 298.157 178.483,298.689 178.863,298.688 178.749 C 298.686 178.634,298.330 178.260,297.895 177.916 C 297.461 177.573,296.984 177.174,296.837 177.029 C 296.599 176.795,295.687 176.276,294.389 175.635 C 294.151 175.517,293.814 175.429,293.640 175.440 C 293.467 175.450,293.999 175.772,294.822 176.155 M142.732 176.294 C 142.389 176.491,142.221 176.651,142.358 176.651 C 142.495 176.651,142.888 176.491,143.231 176.294 C 143.575 176.098,143.743 175.938,143.606 175.938 C 143.468 175.938,143.075 176.098,142.732 176.294 M154.362 176.791 C 156.090 177.632,159.451 180.713,159.451 181.456 C 159.451 181.614,159.516 181.677,159.596 181.598 C 160.323 180.870,154.472 175.904,152.911 175.924 C 152.734 175.927,153.387 176.317,154.362 176.791 M232.564 176.294 C 232.202 176.501,232.097 176.651,232.314 176.652 C 232.520 176.652,232.907 176.488,233.173 176.287 C 233.789 175.820,233.384 175.826,232.564 176.294 M303.182 176.404 C 302.701 176.659,301.669 177.537,300.887 178.356 C 299.932 179.358,299.424 179.735,299.336 179.505 C 299.264 179.318,299.090 179.164,298.950 179.164 C 298.810 179.164,298.883 179.384,299.114 179.653 C 299.523 180.131,299.565 180.107,300.831 178.709 C 301.545 177.920,302.646 177.008,303.279 176.683 C 303.912 176.357,304.429 176.053,304.429 176.006 C 304.429 175.828,304.027 175.957,303.182 176.404 M313.419 176.338 C 313.759 176.568,314.457 177.083,314.972 177.482 C 315.487 177.881,315.908 178.152,315.908 178.083 C 315.908 177.866,313.359 175.920,313.075 175.920 C 312.925 175.920,313.080 176.108,313.419 176.338 M203.918 178.802 C 203.859 182.024,203.934 182.158,205.789 182.158 L 207.112 182.158 207.112 190.842 C 207.112 197.263,207.190 199.604,207.411 199.825 C 207.746 200.160,214.731 200.264,214.934 199.938 C 214.997 199.835,213.348 199.750,211.268 199.750 L 207.486 199.750 207.361 190.892 L 207.236 182.034 205.739 181.909 L 204.242 181.784 204.105 178.915 L 203.967 176.045 203.918 178.802 M127.286 177.461 C 127.890 177.896,128.818 178.710,129.348 179.270 C 129.879 179.829,130.160 180.065,129.972 179.794 C 129.234 178.724,126.932 176.669,126.473 176.669 C 126.317 176.669,126.682 177.025,127.286 177.461 M229.694 178.069 L 228.696 178.962 229.819 178.141 C 230.437 177.690,230.989 177.287,231.046 177.244 C 231.103 177.202,231.047 177.169,230.921 177.172 C 230.795 177.174,230.243 177.577,229.694 178.069 M87.586 177.516 C 87.586 177.933,89.433 179.183,90.006 179.154 C 90.116 179.149,89.869 178.966,89.457 178.749 C 89.046 178.532,88.456 178.124,88.147 177.843 C 87.838 177.561,87.586 177.414,87.586 177.516 M79.618 178.790 C 79.617 179.064,79.781 179.507,79.983 179.773 C 80.447 180.386,80.447 180.196,79.985 179.130 C 79.732 178.549,79.620 178.444,79.618 178.790 M316.430 179.164 C 317.153 180.284,317.156 180.287,317.154 180.017 C 317.153 179.891,316.863 179.451,316.510 179.039 L 315.866 178.291 316.430 179.164 M90.830 179.470 C 92.237 180.090,93.075 180.341,93.075 180.144 C 93.075 180.029,92.681 179.861,92.199 179.771 C 91.717 179.681,91.262 179.507,91.187 179.385 C 91.111 179.264,90.860 179.171,90.628 179.180 C 90.340 179.191,90.404 179.283,90.830 179.470 M138.066 179.726 C 137.322 180.542,136.758 181.661,137.327 181.192 C 137.555 181.004,137.742 180.730,137.742 180.584 C 137.742 180.439,137.986 180.059,138.284 179.742 C 138.583 179.424,138.771 179.164,138.702 179.164 C 138.633 179.164,138.347 179.417,138.066 179.726 M227.579 180.225 C 227.169 180.808,226.708 181.433,226.554 181.613 C 226.401 181.794,226.333 182.000,226.404 182.070 C 226.474 182.141,226.986 181.516,227.540 180.681 C 228.684 178.959,228.714 178.611,227.579 180.225 M94.198 180.793 C 95.454 181.246,95.529 181.246,94.932 180.794 C 94.666 180.592,94.167 180.429,93.824 180.431 C 93.329 180.433,93.406 180.508,94.198 180.793 M130.754 181.408 C 131.048 181.985,131.338 182.408,131.397 182.348 C 131.543 182.203,130.789 180.712,130.471 180.515 C 130.332 180.430,130.460 180.831,130.754 181.408 M317.155 180.591 C 317.155 180.751,317.268 180.951,317.405 181.036 C 317.542 181.120,317.667 181.436,317.683 181.736 C 317.705 182.152,317.740 182.179,317.826 181.851 C 317.888 181.614,317.762 181.167,317.547 180.860 C 317.332 180.552,317.155 180.431,317.155 180.591 M80.848 181.371 C 80.848 181.628,82.811 183.525,82.937 183.390 C 82.992 183.330,82.545 182.809,81.943 182.233 C 81.341 181.656,80.848 181.268,80.848 181.371 M96.590 181.737 C 97.873 182.698,99.314 183.669,99.314 183.573 C 99.314 183.399,96.920 181.659,96.681 181.659 C 96.574 181.659,96.533 181.694,96.590 181.737 M136.544 181.959 C 136.379 182.124,136.245 182.454,136.245 182.693 C 136.245 182.932,136.132 183.197,135.995 183.281 C 135.858 183.366,135.751 183.682,135.758 183.982 C 135.767 184.363,135.886 184.226,136.151 183.531 C 136.360 182.982,136.636 182.336,136.764 182.096 C 137.037 181.586,136.963 181.540,136.544 181.959 M118.594 182.088 C 118.973 182.145,119.534 182.144,119.841 182.085 C 120.148 182.025,119.838 181.978,119.152 181.980 C 118.465 181.982,118.214 182.031,118.594 182.088 M146.336 182.302 C 146.069 182.518,146.020 182.602,146.226 182.490 C 146.432 182.377,147.274 182.218,148.097 182.135 L 149.595 181.985 148.207 181.947 C 147.270 181.921,146.663 182.036,146.336 182.302 M237.497 182.090 C 237.945 182.145,238.619 182.144,238.994 182.087 C 239.369 182.030,239.002 181.985,238.178 181.986 C 237.355 181.988,237.048 182.034,237.497 182.090 M286.712 182.283 C 286.317 182.510,286.230 182.643,286.475 182.649 C 286.688 182.654,286.969 182.552,287.099 182.422 C 287.230 182.293,287.954 182.145,288.709 182.094 L 290.081 182.001 288.709 181.964 C 287.910 181.942,287.075 182.076,286.712 182.283 M303.872 182.665 C 303.243 183.082,302.524 183.727,302.274 184.100 C 301.593 185.114,301.184 185.924,301.194 186.242 C 301.199 186.398,301.421 186.076,301.688 185.527 C 302.791 183.252,304.335 182.158,306.446 182.158 C 307.242 182.158,307.963 182.271,308.047 182.408 C 308.132 182.545,308.335 182.654,308.499 182.650 C 308.662 182.645,308.578 182.477,308.312 182.275 C 307.420 181.601,305.181 181.798,303.872 182.665 M116.906 182.408 C 116.425 182.615,116.426 182.623,116.953 182.640 C 117.254 182.650,117.570 182.545,117.654 182.408 C 117.837 182.113,117.593 182.113,116.906 182.408 M150.218 182.473 C 151.488 183.102,152.134 183.677,152.692 184.668 C 153.006 185.227,153.312 185.635,153.373 185.575 C 153.837 185.110,151.432 182.629,150.218 182.322 L 149.595 182.163 150.218 182.473 M122.571 183.220 C 122.942 183.528,123.482 184.061,123.771 184.404 L 124.297 185.028 123.845 184.279 C 123.346 183.451,122.531 182.678,122.146 182.667 C 122.009 182.663,122.200 182.912,122.571 183.220 M144.853 183.303 L 144.105 183.946 144.916 183.410 C 145.362 183.115,145.727 182.825,145.727 182.765 C 145.727 182.579,145.621 182.644,144.853 183.303 M160.209 182.816 C 160.204 182.972,160.364 183.477,160.564 183.939 C 160.765 184.401,160.933 184.651,160.938 184.495 C 160.944 184.339,160.784 183.834,160.584 183.372 C 160.383 182.911,160.215 182.660,160.209 182.816 M177.792 183.033 L 177.043 183.386 177.792 183.239 C 178.203 183.158,178.647 182.994,178.777 182.875 C 179.133 182.549,178.657 182.625,177.792 183.033 M241.455 183.256 C 241.884 183.607,242.480 184.414,242.779 185.050 C 243.078 185.686,243.372 186.156,243.434 186.094 C 243.789 185.739,242.097 183.321,241.173 182.864 C 240.898 182.728,241.025 182.904,241.455 183.256 M267.623 183.041 C 266.999 183.341,266.978 183.376,267.498 183.249 C 268.205 183.076,269.000 182.671,268.621 182.676 C 268.484 182.678,268.035 182.842,267.623 183.041 M285.539 182.963 C 284.985 183.679,284.930 183.991,285.453 183.452 C 285.762 183.134,285.963 182.823,285.900 182.760 C 285.837 182.697,285.675 182.789,285.539 182.963 M291.785 183.307 C 292.152 183.673,292.452 184.089,292.452 184.230 C 292.452 184.372,292.517 184.422,292.596 184.343 C 292.803 184.136,291.999 182.978,291.521 182.795 C 291.300 182.710,291.419 182.940,291.785 183.307 M115.499 183.398 C 115.175 183.668,114.998 183.892,115.107 183.897 C 115.216 183.901,115.546 183.681,115.840 183.406 C 116.531 182.763,116.269 182.756,115.499 183.398 M131.647 183.281 C 131.745 183.556,131.907 184.230,132.007 184.779 L 132.190 185.777 132.212 184.903 C 132.224 184.423,132.062 183.749,131.852 183.406 C 131.604 183.002,131.532 182.958,131.647 183.281 M225.831 183.398 C 225.674 183.691,225.594 184.178,225.652 184.479 C 225.747 184.970,225.762 184.961,225.793 184.392 C 225.811 184.042,225.959 183.623,226.122 183.460 C 226.284 183.298,226.350 183.097,226.267 183.015 C 226.184 182.932,225.988 183.104,225.831 183.398 M176.307 183.704 C 175.774 184.013,173.641 186.201,173.758 186.318 C 173.798 186.358,174.521 185.719,175.365 184.898 C 176.209 184.078,176.876 183.410,176.847 183.414 C 176.817 183.418,176.574 183.548,176.307 183.704 M265.857 183.980 C 264.588 184.888,262.783 187.258,263.111 187.586 C 263.187 187.662,263.411 187.343,263.609 186.875 C 263.953 186.060,264.926 184.972,266.251 183.919 C 267.090 183.252,266.816 183.294,265.857 183.980 M100.191 184.364 C 100.538 184.754,100.985 185.288,101.183 185.550 C 101.381 185.812,101.547 185.930,101.552 185.813 C 101.563 185.498,100.059 183.656,99.790 183.656 C 99.663 183.656,99.844 183.975,100.191 184.364 M84.092 184.160 C 84.092 184.303,84.266 184.486,84.477 184.568 C 85.063 184.792,85.131 184.550,84.580 184.206 C 84.271 184.013,84.092 183.996,84.092 184.160 M143.615 184.729 C 143.408 185.045,143.176 185.691,143.100 186.164 C 142.977 186.924,143.009 186.894,143.373 185.901 C 143.599 185.284,143.898 184.638,144.037 184.467 C 144.177 184.295,144.223 184.155,144.141 184.155 C 144.059 184.155,143.822 184.413,143.615 184.729 M284.258 184.789 C 283.840 185.707,283.919 185.903,284.371 185.068 C 284.582 184.679,284.709 184.313,284.651 184.256 C 284.594 184.199,284.417 184.439,284.258 184.789 M85.340 184.787 C 85.340 184.964,87.545 185.905,87.918 185.887 C 88.079 185.880,87.742 185.683,87.170 185.451 C 86.598 185.218,86.046 184.944,85.943 184.841 C 85.727 184.625,85.340 184.591,85.340 184.787 M292.719 184.826 C 292.775 185.474,293.165 186.023,293.183 185.479 C 293.192 185.179,293.088 184.863,292.951 184.779 C 292.813 184.694,292.709 184.715,292.719 184.826 M135.399 185.435 C 135.073 187.026,135.063 188.172,135.362 189.769 C 135.542 190.730,135.699 191.179,135.711 190.767 C 135.723 190.356,135.627 189.558,135.497 188.995 C 135.348 188.350,135.348 187.433,135.498 186.515 C 135.726 185.110,135.646 184.231,135.399 185.435 M250.873 187.898 C 250.866 190.649,250.887 190.805,251.046 189.216 C 251.145 188.225,251.148 186.822,251.053 186.097 C 250.926 185.129,250.878 185.609,250.873 187.898 M310.486 185.901 C 310.486 186.519,310.535 186.772,310.594 186.463 C 310.654 186.154,310.654 185.649,310.594 185.340 C 310.535 185.031,310.486 185.284,310.486 185.901 M318.401 192.265 L 318.278 199.750 314.660 199.750 L 311.042 199.750 310.908 193.387 L 310.775 187.024 310.784 193.512 L 310.792 200.000 314.437 200.069 C 319.116 200.157,318.675 201.003,318.592 192.110 L 318.524 184.779 318.401 192.265 M124.302 185.652 C 124.302 185.995,124.399 186.500,124.517 186.775 C 124.712 187.230,124.731 187.219,124.731 186.650 C 124.731 186.307,124.634 185.802,124.517 185.527 C 124.321 185.072,124.302 185.083,124.302 185.652 M225.260 185.304 C 225.160 185.404,225.090 186.000,225.105 186.629 L 225.133 187.773 225.354 186.650 C 225.588 185.457,225.557 185.006,225.260 185.304 M113.964 186.931 C 113.888 187.497,113.914 188.198,114.022 188.490 C 114.156 188.853,114.229 188.531,114.253 187.460 C 114.293 185.670,114.165 185.434,113.964 186.931 M153.546 187.648 C 153.546 188.677,153.590 189.099,153.644 188.584 C 153.698 188.069,153.698 187.227,153.644 186.712 C 153.590 186.198,153.546 186.619,153.546 187.648 M161.012 187.562 C 161.045 188.406,161.157 189.046,161.260 188.982 C 161.532 188.814,161.482 186.840,161.195 186.400 C 161.024 186.139,160.969 186.488,161.012 187.562 M232.897 187.898 C 232.897 188.927,232.941 189.348,232.995 188.833 C 233.049 188.319,233.049 187.477,232.995 186.962 C 232.941 186.447,232.897 186.868,232.897 187.898 M283.718 192.939 C 283.649 196.740,283.679 199.765,283.785 199.659 C 283.890 199.554,283.946 196.443,283.909 192.747 L 283.842 186.026 283.718 192.939 M293.257 192.776 C 293.189 200.874,292.794 200.140,297.180 200.073 L 300.561 200.022 297.068 199.886 L 293.575 199.750 293.444 192.888 L 293.313 186.026 293.257 192.776 M90.172 186.776 C 90.565 186.981,91.014 187.145,91.170 187.140 C 91.578 187.128,90.279 186.420,89.832 186.411 C 89.626 186.407,89.779 186.571,90.172 186.776 M173.198 187.343 C 173.021 187.771,172.934 188.268,173.006 188.446 C 173.079 188.630,173.144 188.549,173.156 188.260 C 173.166 187.978,173.300 187.623,173.453 187.470 C 173.606 187.318,173.683 187.051,173.626 186.878 C 173.568 186.706,173.376 186.915,173.198 187.343 M132.310 187.648 C 132.310 188.129,132.361 188.325,132.424 188.085 C 132.487 187.845,132.487 187.452,132.424 187.211 C 132.361 186.971,132.310 187.168,132.310 187.648 M91.578 187.258 C 91.578 187.318,92.038 187.625,92.601 187.941 C 94.523 189.022,95.067 192.639,93.307 192.639 C 93.180 192.639,93.075 192.754,93.075 192.894 C 93.075 193.431,94.311 192.310,94.564 191.543 C 94.837 190.716,94.575 189.433,93.979 188.675 C 93.511 188.080,91.578 186.939,91.578 187.258 M124.689 188.085 C 124.285 189.980,124.270 190.497,124.654 189.310 C 124.868 188.646,125.003 187.916,124.953 187.688 C 124.901 187.449,124.789 187.617,124.689 188.085 M102.316 187.898 C 102.316 188.104,102.425 188.440,102.558 188.646 C 102.773 188.979,102.800 188.979,102.800 188.646 C 102.800 188.440,102.691 188.104,102.558 187.898 C 102.343 187.565,102.316 187.565,102.316 187.898 M225.124 189.021 C 225.118 189.570,225.210 190.243,225.328 190.518 L 225.542 191.017 225.545 190.518 C 225.547 190.243,225.455 189.570,225.342 189.021 L 225.135 188.022 225.124 189.021 M262.563 189.175 C 262.339 189.943,262.266 191.716,262.319 195.134 L 262.394 200.000 262.451 194.931 C 262.485 191.941,262.617 189.658,262.773 189.365 C 262.919 189.093,263.003 188.693,262.960 188.476 C 262.917 188.260,262.738 188.574,262.563 189.175 M243.226 189.047 C 243.126 189.147,243.044 189.406,243.043 189.624 C 243.042 189.841,242.878 190.331,242.679 190.713 C 242.480 191.095,242.426 191.340,242.560 191.258 C 242.864 191.069,243.581 189.382,243.482 189.085 C 243.441 188.964,243.326 188.947,243.226 189.047 M143.000 189.395 C 143.000 189.601,143.160 190.050,143.356 190.393 C 143.562 190.754,143.713 190.859,143.713 190.643 C 143.713 190.437,143.552 189.988,143.356 189.644 C 143.150 189.284,143.000 189.179,143.000 189.395 M82.396 189.944 C 81.944 190.224,81.628 190.508,81.696 190.575 C 81.763 190.642,82.133 190.476,82.518 190.206 C 82.904 189.936,83.387 189.652,83.593 189.575 C 83.926 189.450,83.926 189.434,83.593 189.435 C 83.387 189.436,82.849 189.665,82.396 189.944 M84.529 189.852 C 85.040 190.388,85.163 190.374,84.945 189.805 C 84.858 189.579,84.631 189.395,84.440 189.395 C 84.175 189.395,84.196 189.504,84.529 189.852 M131.966 191.017 C 131.888 191.429,131.744 191.990,131.648 192.265 C 131.551 192.539,131.654 192.448,131.877 192.063 C 132.100 191.678,132.244 191.116,132.196 190.815 C 132.123 190.360,132.085 190.394,131.966 191.017 M233.518 191.079 C 233.787 191.457,234.263 191.990,234.576 192.265 C 234.960 192.601,234.867 192.381,234.291 191.588 C 233.822 190.941,233.345 190.408,233.233 190.403 C 233.121 190.397,233.249 190.702,233.518 191.079 M80.848 190.837 C 80.848 190.945,80.491 191.167,80.054 191.332 C 79.617 191.497,79.318 191.691,79.390 191.762 C 79.546 191.919,81.028 191.207,81.232 190.876 C 81.312 190.748,81.258 190.643,81.113 190.643 C 80.967 190.643,80.848 190.730,80.848 190.837 M160.644 191.142 C 160.559 191.485,160.418 192.046,160.331 192.389 C 160.232 192.777,160.322 192.688,160.569 192.153 C 160.787 191.679,160.928 191.118,160.882 190.905 C 160.830 190.662,160.741 190.750,160.644 191.142 M152.009 191.792 C 151.555 192.286,151.322 192.645,151.491 192.589 C 151.779 192.493,153.138 190.892,152.931 190.892 C 152.878 190.892,152.463 191.297,152.009 191.792 M86.268 191.904 C 86.709 192.363,87.125 192.683,87.192 192.617 C 87.259 192.550,86.897 192.175,86.389 191.783 L 85.465 191.071 86.268 191.904 M144.230 191.890 C 144.523 192.302,144.876 192.639,145.014 192.639 C 145.305 192.639,144.207 191.176,143.901 191.155 C 143.788 191.148,143.936 191.478,144.230 191.890 M225.615 191.516 C 225.604 191.790,225.755 192.296,225.951 192.639 C 226.178 193.035,226.311 193.121,226.317 192.876 C 226.322 192.663,226.224 192.382,226.100 192.252 C 225.976 192.122,225.821 191.790,225.755 191.516 L 225.635 191.017 225.615 191.516 M102.538 192.451 C 102.464 192.988,102.502 193.294,102.627 193.168 C 102.748 193.048,102.806 192.627,102.757 192.233 C 102.675 191.573,102.657 191.590,102.538 192.451 M115.767 192.372 C 116.239 192.787,116.680 193.073,116.747 193.005 C 116.884 192.869,116.173 192.268,115.409 191.874 C 115.134 191.732,115.296 191.956,115.767 192.372 M135.758 191.789 C 135.721 192.592,137.859 195.955,139.152 197.129 L 140.112 198.001 139.096 196.880 C 137.911 195.572,137.381 194.773,136.449 192.888 C 136.076 192.133,135.765 191.639,135.758 191.789 M241.075 192.451 C 239.862 193.300,236.680 193.611,236.014 192.945 C 235.846 192.777,235.596 192.639,235.459 192.639 C 235.293 192.639,235.294 192.724,235.460 192.890 C 235.886 193.315,238.140 193.789,238.802 193.592 C 239.145 193.489,239.707 193.350,240.050 193.282 C 240.393 193.213,241.067 192.821,241.547 192.409 C 242.661 191.455,242.474 191.472,241.075 192.451 M78.519 192.057 C 78.274 192.302,78.317 193.336,78.579 193.498 C 78.704 193.575,78.747 193.412,78.675 193.137 C 78.603 192.861,78.683 192.468,78.853 192.263 C 79.152 191.903,78.857 191.719,78.519 192.057 M250.051 192.725 C 250.040 192.978,249.799 193.512,249.515 193.910 C 249.231 194.309,249.101 194.635,249.226 194.635 C 249.577 194.635,250.367 193.015,250.210 192.618 C 250.111 192.367,250.065 192.398,250.051 192.725 M145.852 192.954 C 146.646 193.431,148.421 193.823,148.773 193.600 C 148.950 193.487,149.390 193.393,149.751 193.391 C 150.112 193.389,150.561 193.191,150.749 192.951 C 151.062 192.552,151.052 192.545,150.643 192.866 C 150.065 193.321,146.619 193.381,146.183 192.945 C 146.014 192.777,145.759 192.642,145.614 192.646 C 145.470 192.651,145.577 192.789,145.852 192.954 M89.507 193.449 C 90.256 193.577,91.259 193.579,91.878 193.452 C 92.789 193.266,92.593 193.233,90.580 193.230 C 88.395 193.228,88.311 193.245,89.507 193.449 M118.091 193.464 C 118.784 193.597,119.769 193.600,120.462 193.472 C 121.515 193.277,121.383 193.252,119.276 193.245 C 117.164 193.239,117.035 193.262,118.091 193.464 M226.327 193.533 C 226.328 193.659,226.618 194.099,226.971 194.510 L 227.615 195.259 227.051 194.386 C 226.328 193.265,226.325 193.262,226.327 193.533 M102.088 193.966 C 102.044 194.651,100.720 196.450,99.410 197.602 C 98.769 198.166,98.349 198.628,98.476 198.628 C 99.279 198.628,102.429 194.720,102.234 193.966 C 102.120 193.527,102.116 193.527,102.088 193.966 M78.857 194.036 C 78.833 195.394,84.737 200.562,85.472 199.827 C 85.534 199.764,85.050 199.471,84.395 199.175 C 82.885 198.493,80.510 196.386,79.579 194.903 C 79.184 194.275,78.860 193.885,78.857 194.036 M130.493 194.676 C 129.616 196.363,127.965 197.889,125.764 199.045 C 125.409 199.232,125.303 199.374,125.519 199.375 C 126.756 199.380,131.525 194.823,130.918 194.216 C 130.850 194.148,130.659 194.356,130.493 194.676 M247.411 196.507 C 246.588 197.330,245.689 198.138,245.415 198.301 C 245.140 198.464,245.057 198.605,245.229 198.613 C 245.568 198.629,249.239 195.233,249.033 195.094 C 248.964 195.047,248.235 195.683,247.411 196.507 M157.870 196.214 C 157.344 196.782,156.445 197.557,155.874 197.936 C 155.302 198.315,154.921 198.626,155.027 198.627 C 155.674 198.630,159.241 195.583,158.936 195.287 C 158.876 195.229,158.396 195.647,157.870 196.214 M227.573 195.456 C 227.573 196.017,231.677 199.349,231.986 199.039 C 232.055 198.970,231.739 198.721,231.284 198.486 C 230.830 198.251,229.808 197.440,229.015 196.683 C 228.222 195.927,227.573 195.374,227.573 195.456 M189.894 196.858 C 189.894 197.720,192.640 200.207,193.092 199.755 C 193.159 199.687,192.800 199.459,192.292 199.247 C 191.687 198.994,191.117 198.462,190.632 197.698 C 190.226 197.057,189.894 196.680,189.894 196.858 M141.235 198.628 C 141.853 199.038,142.548 199.375,142.780 199.375 C 143.012 199.376,143.271 199.488,143.356 199.626 C 143.441 199.763,143.638 199.875,143.793 199.875 C 144.224 199.875,143.163 199.144,142.718 199.135 C 142.505 199.130,141.950 198.846,141.485 198.503 C 141.020 198.160,140.521 197.879,140.376 197.880 C 140.231 197.881,140.618 198.217,141.235 198.628 M97.713 198.815 C 97.610 198.918,97.058 199.192,96.486 199.425 C 95.914 199.657,95.625 199.854,95.844 199.861 C 96.312 199.878,97.743 199.199,97.951 198.861 C 98.124 198.581,97.975 198.552,97.713 198.815 M115.404 199.116 C 116.585 200.433,121.586 201.174,123.162 200.265 C 123.564 200.033,123.668 199.929,123.394 200.034 C 121.575 200.728,117.440 200.273,115.858 199.205 C 115.009 198.632,114.961 198.623,115.404 199.116 M153.462 199.263 C 152.845 199.584,152.442 199.852,152.567 199.861 C 152.957 199.886,154.710 199.042,154.710 198.829 C 154.710 198.718,154.682 198.640,154.648 198.654 C 154.613 198.669,154.080 198.943,153.462 199.263 M243.793 199.023 C 243.404 199.238,243.316 199.370,243.558 199.372 C 243.772 199.375,244.165 199.211,244.431 199.010 C 245.037 198.552,244.627 198.560,243.793 199.023 M276.046 199.626 C 276.131 199.936,276.766 200.002,279.746 200.011 L 283.344 200.023 279.860 199.941 C 277.485 199.886,276.308 199.764,276.161 199.556 C 276.005 199.337,275.973 199.356,276.046 199.626 M86.463 200.236 C 86.875 200.437,87.548 200.593,87.960 200.584 C 88.699 200.567,88.698 200.564,87.835 200.367 C 87.355 200.258,86.681 200.101,86.338 200.019 C 85.810 199.893,85.830 199.926,86.463 200.236 M94.934 200.110 C 94.804 200.240,94.080 200.388,93.325 200.439 L 91.953 200.532 93.357 200.578 C 94.345 200.610,94.853 200.513,95.072 200.250 C 95.413 199.838,95.312 199.736,94.934 200.110 M145.443 200.236 C 146.552 200.748,150.578 200.757,151.466 200.250 C 151.862 200.023,151.949 199.890,151.703 199.884 C 151.490 199.879,151.196 199.995,151.049 200.142 C 150.760 200.431,146.316 200.345,145.228 200.029 C 144.883 199.929,144.980 200.022,145.443 200.236 M194.510 200.262 C 195.923 200.697,199.729 200.620,200.203 200.146 C 200.411 199.939,200.258 199.916,199.618 200.058 C 198.576 200.289,195.642 200.283,194.261 200.047 C 193.379 199.897,193.408 199.922,194.510 200.262 M235.184 200.238 C 237.248 200.840,241.298 200.727,241.298 200.068 C 241.298 199.917,241.153 199.934,240.939 200.112 C 240.582 200.408,237.193 200.358,234.934 200.022 C 234.037 199.889,234.062 199.910,235.184 200.238 M90.143 200.796 C 90.384 200.859,90.777 200.859,91.017 200.796 C 91.257 200.733,91.061 200.682,90.580 200.682 C 90.100 200.682,89.903 200.733,90.143 200.796 " stroke="none" fill="#a0cccc" fill-rule="evenodd"></path></g></svg>